<svg width="600" height="270" fill="none" xmlns="http://www.w3.org/2000/svg"><path fill="#fff" d="M0 0H600V270H0z"/><rect x="144" y="46" width="16" height="178" rx="6" stroke="#000" stroke-width="2"/><rect x="440" y="46" width="16" height="178" rx="6" stroke="#000" stroke-width="2"/><path stroke="#000" stroke-width="4" d="M161 153L439 153"/><rect x="167" y="146" width="8" height="12" rx="4" fill="#F7931A" stroke="#000" stroke-width="2"/><rect x="183" y="146" width="8" height="12" rx="4" fill="#F7931A" stroke="#000" stroke-width="2"/><rect x="199" y="146" width="8" height="12" rx="4" fill="#F7931A" stroke="#000" stroke-width="2"/><rect x="215" y="146" width="8" height="12" rx="4" fill="#F7931A" stroke="#000" stroke-width="2"/><rect x="231" y="146" width="8" height="12" rx="4" fill="#F7931A" stroke="#000" stroke-width="2"/><rect x="247" y="146" width="8" height="12" rx="4" fill="#F7931A" stroke="#000" stroke-width="2"/><rect x="409" y="146" width="8" height="12" rx="4" fill="#fff" stroke="#000" stroke-width="2"/><rect x="425" y="146" width="8" height="12" rx="4" fill="#fff" stroke="#000" stroke-width="2"/><path stroke="#000" stroke-width="4" d="M161 193L439 193"/><rect x="167" y="186" width="8" height="12" rx="4" fill="#F7931A" stroke="#000" stroke-width="2"/><rect x="183" y="186" width="8" height="12" rx="4" fill="#F7931A" stroke="#000" stroke-width="2"/><rect x="199" y="186" width="8" height="12" rx="4" fill="#F7931A" stroke="#000" stroke-width="2"/><rect x="215" y="186" width="8" height="12" rx="4" fill="#F7931A" stroke="#000" stroke-width="2"/><rect x="231" y="186" width="8" height="12" rx="4" fill="#F7931A" stroke="#000" stroke-width="2"/><rect x="247" y="186" width="8" height="12" rx="4" fill="#F7931A" stroke="#000" stroke-width="2"/><rect x="263" y="186" width="8" height="12" rx="4" fill="#F7931A" stroke="#000" stroke-width="2"/><rect x="279" y="186" width="8" height="12" rx="4" fill="#F7931A" stroke="#000" stroke-width="2"/><path stroke="#000" stroke-width="4" d="M161 113L439 113"/><rect x="167" y="106" width="8" height="12" rx="4" fill="#F7931A" stroke="#000" stroke-width="2"/><rect x="183" y="106" width="8" height="12" rx="4" fill="#F7931A" stroke="#000" stroke-width="2"/><rect x="199" y="106" width="8" height="12" rx="4" fill="#F7931A" stroke="#000" stroke-width="2"/><rect x="361" y="106" width="8" height="12" rx="4" fill="#fff" stroke="#000" stroke-width="2"/><rect x="377" y="106" width="8" height="12" rx="4" fill="#fff" stroke="#000" stroke-width="2"/><rect x="393" y="106" width="8" height="12" rx="4" fill="#fff" stroke="#000" stroke-width="2"/><rect x="409" y="106" width="8" height="12" rx="4" fill="#fff" stroke="#000" stroke-width="2"/><rect x="425" y="106" width="8" height="12" rx="4" fill="#fff" stroke="#000" stroke-width="2"/><path stroke="#000" stroke-width="4" d="M161 73L439 73"/><rect x="167" y="66" width="8" height="12" rx="4" fill="#F7931A" stroke="#000" stroke-width="2"/><rect x="183" y="66" width="8" height="12" rx="4" fill="#F7931A" stroke="#000" stroke-width="2"/><rect x="199" y="66" width="8" height="12" rx="4" fill="#F7931A" stroke="#000" stroke-width="2"/><rect x="215" y="66" width="8" height="12" rx="4" fill="#F7931A" stroke="#000" stroke-width="2"/><rect x="377" y="66" width="8" height="12" rx="4" fill="#fff" stroke="#000" stroke-width="2"/><rect x="393" y="66" width="8" height="12" rx="4" fill="#fff" stroke="#000" stroke-width="2"/><rect x="409" y="66" width="8" height="12" rx="4" fill="#fff" stroke="#000" stroke-width="2"/><rect x="425" y="66" width="8" height="12" rx="4" fill="#fff" stroke="#000" stroke-width="2"/></svg>