<svg width="1336" height="400" fill="none" xmlns="http://www.w3.org/2000/svg"><path fill="#fff" d="M0 0H1336V400H0z"/><rect x="511" y="111" width="16" height="178" rx="6" stroke="#000" stroke-width="2"/><rect x="807" y="111" width="16" height="178" rx="6" stroke="#000" stroke-width="2"/><path stroke="#000" stroke-width="4" d="M528 218L806 218"/><rect x="534" y="211" width="8" height="12" rx="4" fill="#F7931A" stroke="#000" stroke-width="2"/><rect x="550" y="211" width="8" height="12" rx="4" fill="#F7931A" stroke="#000" stroke-width="2"/><rect x="566" y="211" width="8" height="12" rx="4" fill="#F7931A" stroke="#000" stroke-width="2"/><rect x="582" y="211" width="8" height="12" rx="4" fill="#F7931A" stroke="#000" stroke-width="2"/><rect x="598" y="211" width="8" height="12" rx="4" fill="#F7931A" stroke="#000" stroke-width="2"/><rect x="614" y="211" width="8" height="12" rx="4" fill="#F7931A" stroke="#000" stroke-width="2"/><rect x="776" y="211" width="8" height="12" rx="4" fill="#fff" stroke="#000" stroke-width="2"/><rect x="792" y="211" width="8" height="12" rx="4" fill="#fff" stroke="#000" stroke-width="2"/><path stroke="#000" stroke-width="4" d="M528 258L806 258"/><rect x="534" y="251" width="8" height="12" rx="4" fill="#F7931A" stroke="#000" stroke-width="2"/><rect x="550" y="251" width="8" height="12" rx="4" fill="#F7931A" stroke="#000" stroke-width="2"/><rect x="566" y="251" width="8" height="12" rx="4" fill="#F7931A" stroke="#000" stroke-width="2"/><rect x="582" y="251" width="8" height="12" rx="4" fill="#F7931A" stroke="#000" stroke-width="2"/><rect x="598" y="251" width="8" height="12" rx="4" fill="#F7931A" stroke="#000" stroke-width="2"/><rect x="614" y="251" width="8" height="12" rx="4" fill="#F7931A" stroke="#000" stroke-width="2"/><rect x="630" y="251" width="8" height="12" rx="4" fill="#F7931A" stroke="#000" stroke-width="2"/><rect x="646" y="251" width="8" height="12" rx="4" fill="#F7931A" stroke="#000" stroke-width="2"/><path stroke="#000" stroke-width="4" d="M528 178L806 178"/><rect x="534" y="171" width="8" height="12" rx="4" fill="#F7931A" stroke="#000" stroke-width="2"/><rect x="550" y="171" width="8" height="12" rx="4" fill="#F7931A" stroke="#000" stroke-width="2"/><rect x="566" y="171" width="8" height="12" rx="4" fill="#F7931A" stroke="#000" stroke-width="2"/><rect x="728" y="171" width="8" height="12" rx="4" fill="#fff" stroke="#000" stroke-width="2"/><rect x="744" y="171" width="8" height="12" rx="4" fill="#fff" stroke="#000" stroke-width="2"/><rect x="760" y="171" width="8" height="12" rx="4" fill="#fff" stroke="#000" stroke-width="2"/><rect x="776" y="171" width="8" height="12" rx="4" fill="#fff" stroke="#000" stroke-width="2"/><rect x="792" y="171" width="8" height="12" rx="4" fill="#fff" stroke="#000" stroke-width="2"/><path stroke="#000" stroke-width="4" d="M528 138L806 138"/><rect x="534" y="131" width="8" height="12" rx="4" fill="#F7931A" stroke="#000" stroke-width="2"/><rect x="550" y="131" width="8" height="12" rx="4" fill="#F7931A" stroke="#000" stroke-width="2"/><rect x="566" y="131" width="8" height="12" rx="4" fill="#F7931A" stroke="#000" stroke-width="2"/><rect x="582" y="131" width="8" height="12" rx="4" fill="#F7931A" stroke="#000" stroke-width="2"/><rect x="744" y="131" width="8" height="12" rx="4" fill="#fff" stroke="#000" stroke-width="2"/><rect x="760" y="131" width="8" height="12" rx="4" fill="#fff" stroke="#000" stroke-width="2"/><rect x="776" y="131" width="8" height="12" rx="4" fill="#fff" stroke="#000" stroke-width="2"/><rect x="792" y="131" width="8" height="12" rx="4" fill="#fff" stroke="#000" stroke-width="2"/></svg>