<svg width="280" height="401" viewBox="0 0 280 401" fill="none" xmlns="http://www.w3.org/2000/svg">
<path d="M0 2.99999C0 1.34314 1.34315 0 3 0H277C278.657 0 280 1.34315 280 3V398C280 399.657 278.657 401 277 401H3C1.34315 401 0 399.657 0 398V2.99999Z" fill="white"/>
<rect x="21" y="21" width="238" height="81" rx="2" fill="#E0E0E0"/>
<path d="M40.3271 35.5918H36.2139V47H34.5352V35.5918H30.4307V34.2031H40.3271V35.5918ZM43.7373 47H42.1113V37.4902H43.7373V47ZM41.9795 34.9678C41.9795 34.7041 42.0586 34.4814 42.2168 34.2998C42.3809 34.1182 42.6211 34.0273 42.9375 34.0273C43.2539 34.0273 43.4941 34.1182 43.6582 34.2998C43.8223 34.4814 43.9043 34.7041 43.9043 34.9678C43.9043 35.2314 43.8223 35.4512 43.6582 35.627C43.4941 35.8027 43.2539 35.8906 42.9375 35.8906C42.6211 35.8906 42.3809 35.8027 42.2168 35.627C42.0586 35.4512 41.9795 35.2314 41.9795 34.9678ZM47.877 37.4902L47.9209 38.5449C48.6182 37.7246 49.5586 37.3145 50.7422 37.3145C52.0723 37.3145 52.9775 37.8242 53.458 38.8438C53.7744 38.3867 54.1846 38.0176 54.6885 37.7363C55.1982 37.4551 55.7988 37.3145 56.4902 37.3145C58.5762 37.3145 59.6367 38.4189 59.6719 40.6279V47H58.0459V40.7246C58.0459 40.0449 57.8906 39.5381 57.5801 39.2041C57.2695 38.8643 56.748 38.6943 56.0156 38.6943C55.4121 38.6943 54.9111 38.876 54.5127 39.2393C54.1143 39.5967 53.8828 40.0801 53.8184 40.6895V47H52.1836V40.7686C52.1836 39.3857 51.5068 38.6943 50.1533 38.6943C49.0869 38.6943 48.3574 39.1484 47.9648 40.0566V47H46.3389V37.4902H47.877ZM66.0791 47.1758C64.79 47.1758 63.7412 46.7539 62.9326 45.9102C62.124 45.0605 61.7197 43.9268 61.7197 42.5088V42.21C61.7197 41.2666 61.8984 40.4258 62.2559 39.6875C62.6191 38.9434 63.123 38.3633 63.7676 37.9473C64.418 37.5254 65.1211 37.3145 65.877 37.3145C67.1133 37.3145 68.0742 37.7217 68.7598 38.5361C69.4453 39.3506 69.7881 40.5166 69.7881 42.0342V42.7109H63.3457C63.3691 43.6484 63.6416 44.4072 64.1631 44.9873C64.6904 45.5615 65.3584 45.8486 66.167 45.8486C66.7412 45.8486 67.2275 45.7314 67.626 45.4971C68.0244 45.2627 68.373 44.9521 68.6719 44.5654L69.665 45.3389C68.8682 46.5635 67.6729 47.1758 66.0791 47.1758ZM65.877 38.6504C65.2207 38.6504 64.6699 38.8906 64.2246 39.3711C63.7793 39.8457 63.5039 40.5137 63.3984 41.375H68.1621V41.252C68.1152 40.4258 67.8926 39.7871 67.4941 39.3359C67.0957 38.8789 66.5566 38.6504 65.877 38.6504ZM77.2148 44.4775C77.2148 44.0381 77.0479 43.6982 76.7139 43.458C76.3857 43.2119 75.8086 43.001 74.9824 42.8252C74.1621 42.6494 73.5088 42.4385 73.0225 42.1924C72.542 41.9463 72.1846 41.6533 71.9502 41.3135C71.7217 40.9736 71.6074 40.5693 71.6074 40.1006C71.6074 39.3213 71.9355 38.6621 72.5918 38.123C73.2539 37.584 74.0977 37.3145 75.123 37.3145C76.2012 37.3145 77.0742 37.5928 77.7422 38.1494C78.416 38.7061 78.7529 39.418 78.7529 40.2852H77.1182C77.1182 39.8398 76.9277 39.4561 76.5469 39.1338C76.1719 38.8115 75.6973 38.6504 75.123 38.6504C74.5312 38.6504 74.0684 38.7793 73.7344 39.0371C73.4004 39.2949 73.2334 39.6318 73.2334 40.0479C73.2334 40.4404 73.3887 40.7363 73.6992 40.9355C74.0098 41.1348 74.5693 41.3252 75.3779 41.5068C76.1924 41.6885 76.8516 41.9053 77.3555 42.1572C77.8594 42.4092 78.2314 42.7139 78.4717 43.0713C78.7178 43.4229 78.8408 43.8535 78.8408 44.3633C78.8408 45.2129 78.501 45.8955 77.8213 46.4111C77.1416 46.9209 76.2598 47.1758 75.1758 47.1758C74.4141 47.1758 73.7402 47.041 73.1543 46.7715C72.5684 46.502 72.1084 46.127 71.7744 45.6465C71.4463 45.1602 71.2822 44.6357 71.2822 44.0732H72.9082C72.9375 44.6182 73.1543 45.0518 73.5586 45.374C73.9688 45.6904 74.5078 45.8486 75.1758 45.8486C75.791 45.8486 76.2832 45.7256 76.6523 45.4795C77.0273 45.2275 77.2148 44.8936 77.2148 44.4775ZM83.165 35.1875V37.4902H84.9404V38.7471H83.165V44.6445C83.165 45.0254 83.2441 45.3125 83.4023 45.5059C83.5605 45.6934 83.8301 45.7871 84.2109 45.7871C84.3984 45.7871 84.6562 45.752 84.9844 45.6816V47C84.5566 47.1172 84.1406 47.1758 83.7363 47.1758C83.0098 47.1758 82.4619 46.9561 82.0928 46.5166C81.7236 46.0771 81.5391 45.4531 81.5391 44.6445V38.7471H79.8076V37.4902H81.5391V35.1875H83.165ZM92.7188 47C92.625 46.8125 92.5488 46.4785 92.4902 45.998C91.7344 46.7832 90.832 47.1758 89.7832 47.1758C88.8457 47.1758 88.0752 46.9121 87.4717 46.3848C86.874 45.8516 86.5752 45.1777 86.5752 44.3633C86.5752 43.373 86.9502 42.6055 87.7002 42.0605C88.4561 41.5098 89.5166 41.2344 90.8818 41.2344H92.4639V40.4873C92.4639 39.9189 92.2939 39.4678 91.9541 39.1338C91.6143 38.7939 91.1133 38.624 90.4512 38.624C89.8711 38.624 89.3848 38.7705 88.9922 39.0635C88.5996 39.3564 88.4033 39.7109 88.4033 40.127H86.7686C86.7686 39.6523 86.9355 39.1953 87.2695 38.7559C87.6094 38.3105 88.0664 37.959 88.6406 37.7012C89.2207 37.4434 89.8564 37.3145 90.5479 37.3145C91.6436 37.3145 92.502 37.5898 93.123 38.1406C93.7441 38.6855 94.0664 39.4385 94.0898 40.3994V44.7764C94.0898 45.6494 94.2012 46.3438 94.4238 46.8594V47H92.7188ZM90.0205 45.7607C90.5303 45.7607 91.0137 45.6289 91.4707 45.3652C91.9277 45.1016 92.2588 44.7588 92.4639 44.3369V42.3857H91.1895C89.1973 42.3857 88.2012 42.9688 88.2012 44.1348C88.2012 44.6445 88.3711 45.043 88.7109 45.3301C89.0508 45.6172 89.4873 45.7607 90.0205 45.7607ZM98.168 37.4902L98.2119 38.5449C98.9092 37.7246 99.8496 37.3145 101.033 37.3145C102.363 37.3145 103.269 37.8242 103.749 38.8438C104.065 38.3867 104.476 38.0176 104.979 37.7363C105.489 37.4551 106.09 37.3145 106.781 37.3145C108.867 37.3145 109.928 38.4189 109.963 40.6279V47H108.337V40.7246C108.337 40.0449 108.182 39.5381 107.871 39.2041C107.561 38.8643 107.039 38.6943 106.307 38.6943C105.703 38.6943 105.202 38.876 104.804 39.2393C104.405 39.5967 104.174 40.0801 104.109 40.6895V47H102.475V40.7686C102.475 39.3857 101.798 38.6943 100.444 38.6943C99.3779 38.6943 98.6484 39.1484 98.2559 40.0566V47H96.6299V37.4902H98.168ZM120.457 42.3506C120.457 43.7979 120.126 44.9639 119.464 45.8486C118.802 46.7334 117.905 47.1758 116.774 47.1758C115.62 47.1758 114.712 46.8096 114.05 46.0771V50.6562H112.424V37.4902H113.909L113.988 38.5449C114.65 37.7246 115.57 37.3145 116.748 37.3145C117.891 37.3145 118.793 37.7451 119.455 38.6064C120.123 39.4678 120.457 40.666 120.457 42.2012V42.3506ZM118.831 42.166C118.831 41.0938 118.603 40.2471 118.146 39.626C117.688 39.0049 117.062 38.6943 116.265 38.6943C115.28 38.6943 114.542 39.1309 114.05 40.0039V44.5479C114.536 45.415 115.28 45.8486 116.282 45.8486C117.062 45.8486 117.68 45.541 118.137 44.9258C118.6 44.3047 118.831 43.3848 118.831 42.166ZM31.2656 67.1475C31.2656 66.8662 31.3477 66.6318 31.5117 66.4443C31.6816 66.2568 31.9336 66.1631 32.2676 66.1631C32.6016 66.1631 32.8535 66.2568 33.0234 66.4443C33.1992 66.6318 33.2871 66.8662 33.2871 67.1475C33.2871 67.417 33.1992 67.6426 33.0234 67.8242C32.8535 68.0059 32.6016 68.0967 32.2676 68.0967C31.9336 68.0967 31.6816 68.0059 31.5117 67.8242C31.3477 67.6426 31.2656 67.417 31.2656 67.1475ZM36.0117 67.1475C36.0117 66.8662 36.0938 66.6318 36.2578 66.4443C36.4277 66.2568 36.6797 66.1631 37.0137 66.1631C37.3477 66.1631 37.5996 66.2568 37.7695 66.4443C37.9453 66.6318 38.0332 66.8662 38.0332 67.1475C38.0332 67.417 37.9453 67.6426 37.7695 67.8242C37.5996 68.0059 37.3477 68.0967 37.0137 68.0967C36.6797 68.0967 36.4277 68.0059 36.2578 67.8242C36.0938 67.6426 36.0117 67.417 36.0117 67.1475ZM40.7578 67.1475C40.7578 66.8662 40.8398 66.6318 41.0039 66.4443C41.1738 66.2568 41.4258 66.1631 41.7598 66.1631C42.0938 66.1631 42.3457 66.2568 42.5156 66.4443C42.6914 66.6318 42.7793 66.8662 42.7793 67.1475C42.7793 67.417 42.6914 67.6426 42.5156 67.8242C42.3457 68.0059 42.0938 68.0967 41.7598 68.0967C41.4258 68.0967 41.1738 68.0059 41.0039 67.8242C40.8398 67.6426 40.7578 67.417 40.7578 67.1475ZM31.8105 82.584L32.4609 76.2031H39.0176V77.7061H33.8408L33.4541 81.1953C34.0811 80.8262 34.793 80.6416 35.5898 80.6416C36.7559 80.6416 37.6816 81.0283 38.3672 81.8018C39.0527 82.5693 39.3955 83.6094 39.3955 84.9219C39.3955 86.2402 39.0381 87.2803 38.3232 88.042C37.6143 88.7979 36.6211 89.1758 35.3438 89.1758C34.2129 89.1758 33.29 88.8623 32.5752 88.2354C31.8604 87.6084 31.4531 86.7412 31.3535 85.6338H32.8916C32.9912 86.3662 33.252 86.9199 33.6738 87.2949C34.0957 87.6641 34.6523 87.8486 35.3438 87.8486C36.0996 87.8486 36.6914 87.5908 37.1191 87.0752C37.5527 86.5596 37.7695 85.8477 37.7695 84.9395C37.7695 84.084 37.5352 83.3984 37.0664 82.8828C36.6035 82.3613 35.9854 82.1006 35.2119 82.1006C34.5029 82.1006 33.9463 82.2559 33.542 82.5664L33.1113 82.918L31.8105 82.584ZM49.1953 83.542C49.1953 85.4463 48.8701 86.8613 48.2197 87.7871C47.5693 88.7129 46.5527 89.1758 45.1699 89.1758C43.8047 89.1758 42.7939 88.7246 42.1377 87.8223C41.4814 86.9141 41.1416 85.5605 41.1182 83.7617V81.5908C41.1182 79.71 41.4434 78.3125 42.0938 77.3984C42.7441 76.4844 43.7637 76.0273 45.1523 76.0273C46.5293 76.0273 47.543 76.4697 48.1934 77.3545C48.8438 78.2334 49.1777 79.5928 49.1953 81.4326V83.542ZM47.5693 81.3184C47.5693 79.9414 47.376 78.9395 46.9893 78.3125C46.6025 77.6797 45.9902 77.3633 45.1523 77.3633C44.3203 77.3633 43.7139 77.6768 43.333 78.3037C42.9521 78.9307 42.7559 79.8945 42.7441 81.1953V83.7969C42.7441 85.1797 42.9434 86.2021 43.3418 86.8643C43.7461 87.5205 44.3555 87.8486 45.1699 87.8486C45.9727 87.8486 46.5674 87.5381 46.9541 86.917C47.3467 86.2959 47.5518 85.3174 47.5693 83.9814V81.3184ZM54.583 86.7939L56.9385 79.4902H58.5996L55.1895 89H53.9502L50.5049 79.4902H52.166L54.583 86.7939ZM68.2148 84.3506C68.2148 85.8037 67.8809 86.9727 67.2129 87.8574C66.5449 88.7363 65.6484 89.1758 64.5234 89.1758C63.3223 89.1758 62.3936 88.751 61.7373 87.9014L61.6582 89H60.1641V75.5H61.79V80.5361C62.4463 79.7217 63.3516 79.3145 64.5059 79.3145C65.6602 79.3145 66.5654 79.751 67.2217 80.624C67.8838 81.4971 68.2148 82.6924 68.2148 84.21V84.3506ZM66.5889 84.166C66.5889 83.0586 66.375 82.2031 65.9473 81.5996C65.5195 80.9961 64.9043 80.6943 64.1016 80.6943C63.0293 80.6943 62.2588 81.1924 61.79 82.1885V86.3018C62.2881 87.2979 63.0645 87.7959 64.1191 87.7959C64.8984 87.7959 65.5049 87.4941 65.9385 86.8906C66.3721 86.2871 66.5889 85.3789 66.5889 84.166ZM73.2773 86.6182L75.4922 79.4902H77.2324L73.4092 90.4678C72.8174 92.0498 71.877 92.8408 70.5879 92.8408L70.2803 92.8145L69.6738 92.7002V91.3818L70.1133 91.417C70.6641 91.417 71.0918 91.3057 71.3965 91.083C71.707 90.8604 71.9619 90.4531 72.1611 89.8613L72.5215 88.8945L69.1289 79.4902H70.9043L73.2773 86.6182ZM80.8975 77.1875V79.4902H82.6729V80.7471H80.8975V86.6445C80.8975 87.0254 80.9766 87.3125 81.1348 87.5059C81.293 87.6934 81.5625 87.7871 81.9434 87.7871C82.1309 87.7871 82.3887 87.752 82.7168 87.6816V89C82.2891 89.1172 81.873 89.1758 81.4688 89.1758C80.7422 89.1758 80.1943 88.9561 79.8252 88.5166C79.4561 88.0771 79.2715 87.4531 79.2715 86.6445V80.7471H77.54V79.4902H79.2715V77.1875H80.8975ZM88.5264 89.1758C87.2373 89.1758 86.1885 88.7539 85.3799 87.9102C84.5713 87.0605 84.167 85.9268 84.167 84.5088V84.21C84.167 83.2666 84.3457 82.4258 84.7031 81.6875C85.0664 80.9434 85.5703 80.3633 86.2148 79.9473C86.8652 79.5254 87.5684 79.3145 88.3242 79.3145C89.5605 79.3145 90.5215 79.7217 91.207 80.5361C91.8926 81.3506 92.2354 82.5166 92.2354 84.0342V84.7109H85.793C85.8164 85.6484 86.0889 86.4072 86.6104 86.9873C87.1377 87.5615 87.8057 87.8486 88.6143 87.8486C89.1885 87.8486 89.6748 87.7314 90.0732 87.4971C90.4717 87.2627 90.8203 86.9521 91.1191 86.5654L92.1123 87.3389C91.3154 88.5635 90.1201 89.1758 88.5264 89.1758ZM88.3242 80.6504C87.668 80.6504 87.1172 80.8906 86.6719 81.3711C86.2266 81.8457 85.9512 82.5137 85.8457 83.375H90.6094V83.252C90.5625 82.4258 90.3398 81.7871 89.9414 81.3359C89.543 80.8789 89.0039 80.6504 88.3242 80.6504ZM99.6621 86.4775C99.6621 86.0381 99.4951 85.6982 99.1611 85.458C98.833 85.2119 98.2559 85.001 97.4297 84.8252C96.6094 84.6494 95.9561 84.4385 95.4697 84.1924C94.9893 83.9463 94.6318 83.6533 94.3975 83.3135C94.1689 82.9736 94.0547 82.5693 94.0547 82.1006C94.0547 81.3213 94.3828 80.6621 95.0391 80.123C95.7012 79.584 96.5449 79.3145 97.5703 79.3145C98.6484 79.3145 99.5215 79.5928 100.189 80.1494C100.863 80.7061 101.2 81.418 101.2 82.2852H99.5654C99.5654 81.8398 99.375 81.4561 98.9941 81.1338C98.6191 80.8115 98.1445 80.6504 97.5703 80.6504C96.9785 80.6504 96.5156 80.7793 96.1816 81.0371C95.8477 81.2949 95.6807 81.6318 95.6807 82.0479C95.6807 82.4404 95.8359 82.7363 96.1465 82.9355C96.457 83.1348 97.0166 83.3252 97.8252 83.5068C98.6396 83.6885 99.2988 83.9053 99.8027 84.1572C100.307 84.4092 100.679 84.7139 100.919 85.0713C101.165 85.4229 101.288 85.8535 101.288 86.3633C101.288 87.2129 100.948 87.8955 100.269 88.4111C99.5889 88.9209 98.707 89.1758 97.623 89.1758C96.8613 89.1758 96.1875 89.041 95.6016 88.7715C95.0156 88.502 94.5557 88.127 94.2217 87.6465C93.8936 87.1602 93.7295 86.6357 93.7295 86.0732H95.3555C95.3848 86.6182 95.6016 87.0518 96.0059 87.374C96.416 87.6904 96.9551 87.8486 97.623 87.8486C98.2383 87.8486 98.7305 87.7256 99.0996 87.4795C99.4746 87.2275 99.6621 86.8936 99.6621 86.4775Z" fill="black"/>
<rect x="21" y="21" width="238" height="81" rx="2" stroke="black" stroke-width="2"/>
<path d="M26.4072 137H24.7725V126.163L21.4941 127.367V125.891L26.1523 124.142H26.4072V137ZM39.1953 131.542C39.1953 133.446 38.8701 134.861 38.2197 135.787C37.5693 136.713 36.5527 137.176 35.1699 137.176C33.8047 137.176 32.7939 136.725 32.1377 135.822C31.4814 134.914 31.1416 133.561 31.1182 131.762V129.591C31.1182 127.71 31.4434 126.312 32.0938 125.398C32.7441 124.484 33.7637 124.027 35.1523 124.027C36.5293 124.027 37.543 124.47 38.1934 125.354C38.8438 126.233 39.1777 127.593 39.1953 129.433V131.542ZM37.5693 129.318C37.5693 127.941 37.376 126.939 36.9893 126.312C36.6025 125.68 35.9902 125.363 35.1523 125.363C34.3203 125.363 33.7139 125.677 33.333 126.304C32.9521 126.931 32.7559 127.895 32.7441 129.195V131.797C32.7441 133.18 32.9434 134.202 33.3418 134.864C33.7461 135.521 34.3555 135.849 35.1699 135.849C35.9727 135.849 36.5674 135.538 36.9541 134.917C37.3467 134.296 37.5518 133.317 37.5693 131.981V129.318ZM49.3027 131.542C49.3027 133.446 48.9775 134.861 48.3271 135.787C47.6768 136.713 46.6602 137.176 45.2773 137.176C43.9121 137.176 42.9014 136.725 42.2451 135.822C41.5889 134.914 41.249 133.561 41.2256 131.762V129.591C41.2256 127.71 41.5508 126.312 42.2012 125.398C42.8516 124.484 43.8711 124.027 45.2598 124.027C46.6367 124.027 47.6504 124.47 48.3008 125.354C48.9512 126.233 49.2852 127.593 49.3027 129.433V131.542ZM47.6768 129.318C47.6768 127.941 47.4834 126.939 47.0967 126.312C46.71 125.68 46.0977 125.363 45.2598 125.363C44.4277 125.363 43.8213 125.677 43.4404 126.304C43.0596 126.931 42.8633 127.895 42.8516 129.195V131.797C42.8516 133.18 43.0508 134.202 43.4492 134.864C43.8535 135.521 44.4629 135.849 45.2773 135.849C46.0801 135.849 46.6748 135.538 47.0615 134.917C47.4541 134.296 47.6592 133.317 47.6768 131.981V129.318ZM57.8457 133.704C57.8457 133.165 57.6553 132.711 57.2744 132.342C56.8994 131.973 56.2637 131.639 55.3672 131.34C54.1191 130.959 53.208 130.464 52.6338 129.854C52.0654 129.239 51.7812 128.46 51.7812 127.517C51.7812 126.556 52.0596 125.768 52.6162 125.152C53.1787 124.537 53.9492 124.171 54.9277 124.054V122.129H56.2373V124.062C57.2217 124.197 57.9863 124.61 58.5312 125.302C59.082 125.993 59.3574 126.939 59.3574 128.141H57.7402C57.7402 127.314 57.5439 126.658 57.1514 126.172C56.7588 125.686 56.2285 125.442 55.5605 125.442C54.8633 125.442 54.3301 125.624 53.9609 125.987C53.5918 126.345 53.4072 126.846 53.4072 127.49C53.4072 128.088 53.6006 128.565 53.9873 128.923C54.3799 129.274 55.0215 129.597 55.9121 129.89C56.8086 130.177 57.5059 130.496 58.0039 130.848C58.5078 131.193 58.877 131.598 59.1113 132.061C59.3516 132.523 59.4717 133.065 59.4717 133.687C59.4717 134.677 59.1729 135.474 58.5752 136.077C57.9834 136.681 57.1514 137.038 56.0791 137.149V138.828H54.7783V137.149C53.6885 137.05 52.833 136.663 52.2119 135.989C51.5967 135.31 51.2891 134.39 51.2891 133.229H52.915C52.915 134.044 53.1289 134.671 53.5566 135.11C53.9844 135.55 54.5908 135.77 55.376 135.77C56.1436 135.77 56.7471 135.585 57.1865 135.216C57.626 134.847 57.8457 134.343 57.8457 133.704ZM68.3311 125.188V127.49H70.1064V128.747H68.3311V134.645C68.3311 135.025 68.4102 135.312 68.5684 135.506C68.7266 135.693 68.9961 135.787 69.377 135.787C69.5645 135.787 69.8223 135.752 70.1504 135.682V137C69.7227 137.117 69.3066 137.176 68.9023 137.176C68.1758 137.176 67.6279 136.956 67.2588 136.517C66.8896 136.077 66.7051 135.453 66.7051 134.645V128.747H64.9736V127.49H66.7051V125.188H68.3311ZM71.4072 132.157C71.4072 131.226 71.5889 130.388 71.9521 129.644C72.3213 128.899 72.8311 128.325 73.4814 127.921C74.1377 127.517 74.8848 127.314 75.7227 127.314C77.0176 127.314 78.0635 127.763 78.8604 128.659C79.6631 129.556 80.0645 130.748 80.0645 132.236V132.351C80.0645 133.276 79.8857 134.108 79.5283 134.847C79.1768 135.579 78.6699 136.15 78.0078 136.561C77.3516 136.971 76.5957 137.176 75.7402 137.176C74.4512 137.176 73.4053 136.728 72.6025 135.831C71.8057 134.935 71.4072 133.748 71.4072 132.271V132.157ZM73.042 132.351C73.042 133.405 73.2852 134.252 73.7715 134.891C74.2637 135.529 74.9199 135.849 75.7402 135.849C76.5664 135.849 77.2227 135.526 77.709 134.882C78.1953 134.231 78.4385 133.323 78.4385 132.157C78.4385 131.114 78.1895 130.271 77.6914 129.626C77.1992 128.976 76.543 128.65 75.7227 128.65C74.9199 128.65 74.2725 128.97 73.7803 129.608C73.2881 130.247 73.042 131.161 73.042 132.351ZM88.0977 127.49L88.1416 128.545C88.8389 127.725 89.7793 127.314 90.9629 127.314C92.293 127.314 93.1982 127.824 93.6787 128.844C93.9951 128.387 94.4053 128.018 94.9092 127.736C95.4189 127.455 96.0195 127.314 96.7109 127.314C98.7969 127.314 99.8574 128.419 99.8926 130.628V137H98.2666V130.725C98.2666 130.045 98.1113 129.538 97.8008 129.204C97.4902 128.864 96.9688 128.694 96.2363 128.694C95.6328 128.694 95.1318 128.876 94.7334 129.239C94.335 129.597 94.1035 130.08 94.0391 130.689V137H92.4043V130.769C92.4043 129.386 91.7275 128.694 90.374 128.694C89.3076 128.694 88.5781 129.148 88.1855 130.057V137H86.5596V127.49H88.0977ZM105.465 134.618L107.68 127.49H109.42L105.597 138.468C105.005 140.05 104.064 140.841 102.775 140.841L102.468 140.814L101.861 140.7V139.382L102.301 139.417C102.852 139.417 103.279 139.306 103.584 139.083C103.895 138.86 104.149 138.453 104.349 137.861L104.709 136.895L101.316 127.49H103.092L105.465 134.618ZM116.873 127.49L116.917 128.545C117.614 127.725 118.555 127.314 119.738 127.314C121.068 127.314 121.974 127.824 122.454 128.844C122.771 128.387 123.181 128.018 123.685 127.736C124.194 127.455 124.795 127.314 125.486 127.314C127.572 127.314 128.633 128.419 128.668 130.628V137H127.042V130.725C127.042 130.045 126.887 129.538 126.576 129.204C126.266 128.864 125.744 128.694 125.012 128.694C124.408 128.694 123.907 128.876 123.509 129.239C123.11 129.597 122.879 130.08 122.814 130.689V137H121.18V130.769C121.18 129.386 120.503 128.694 119.149 128.694C118.083 128.694 117.354 129.148 116.961 130.057V137H115.335V127.49H116.873ZM130.698 132.157C130.698 131.226 130.88 130.388 131.243 129.644C131.612 128.899 132.122 128.325 132.772 127.921C133.429 127.517 134.176 127.314 135.014 127.314C136.309 127.314 137.354 127.763 138.151 128.659C138.954 129.556 139.355 130.748 139.355 132.236V132.351C139.355 133.276 139.177 134.108 138.819 134.847C138.468 135.579 137.961 136.15 137.299 136.561C136.643 136.971 135.887 137.176 135.031 137.176C133.742 137.176 132.696 136.728 131.894 135.831C131.097 134.935 130.698 133.748 130.698 132.271V132.157ZM132.333 132.351C132.333 133.405 132.576 134.252 133.062 134.891C133.555 135.529 134.211 135.849 135.031 135.849C135.857 135.849 136.514 135.526 137 134.882C137.486 134.231 137.729 133.323 137.729 132.157C137.729 131.114 137.48 130.271 136.982 129.626C136.49 128.976 135.834 128.65 135.014 128.65C134.211 128.65 133.563 128.97 133.071 129.608C132.579 130.247 132.333 131.161 132.333 132.351ZM149.445 132.351C149.445 133.804 149.111 134.973 148.443 135.857C147.775 136.736 146.879 137.176 145.754 137.176C144.553 137.176 143.624 136.751 142.968 135.901L142.889 137H141.395V123.5H143.021V128.536C143.677 127.722 144.582 127.314 145.736 127.314C146.891 127.314 147.796 127.751 148.452 128.624C149.114 129.497 149.445 130.692 149.445 132.21V132.351ZM147.819 132.166C147.819 131.059 147.605 130.203 147.178 129.6C146.75 128.996 146.135 128.694 145.332 128.694C144.26 128.694 143.489 129.192 143.021 130.188V134.302C143.519 135.298 144.295 135.796 145.35 135.796C146.129 135.796 146.735 135.494 147.169 134.891C147.603 134.287 147.819 133.379 147.819 132.166ZM153.269 137H151.643V127.49H153.269V137ZM151.511 124.968C151.511 124.704 151.59 124.481 151.748 124.3C151.912 124.118 152.152 124.027 152.469 124.027C152.785 124.027 153.025 124.118 153.189 124.3C153.354 124.481 153.436 124.704 153.436 124.968C153.436 125.231 153.354 125.451 153.189 125.627C153.025 125.803 152.785 125.891 152.469 125.891C152.152 125.891 151.912 125.803 151.748 125.627C151.59 125.451 151.511 125.231 151.511 124.968ZM157.646 137H156.02V123.5H157.646V137ZM164.202 137.176C162.913 137.176 161.864 136.754 161.056 135.91C160.247 135.061 159.843 133.927 159.843 132.509V132.21C159.843 131.267 160.021 130.426 160.379 129.688C160.742 128.943 161.246 128.363 161.891 127.947C162.541 127.525 163.244 127.314 164 127.314C165.236 127.314 166.197 127.722 166.883 128.536C167.568 129.351 167.911 130.517 167.911 132.034V132.711H161.469C161.492 133.648 161.765 134.407 162.286 134.987C162.813 135.562 163.481 135.849 164.29 135.849C164.864 135.849 165.351 135.731 165.749 135.497C166.147 135.263 166.496 134.952 166.795 134.565L167.788 135.339C166.991 136.563 165.796 137.176 164.202 137.176ZM164 128.65C163.344 128.65 162.793 128.891 162.348 129.371C161.902 129.846 161.627 130.514 161.521 131.375H166.285V131.252C166.238 130.426 166.016 129.787 165.617 129.336C165.219 128.879 164.68 128.65 164 128.65ZM175.795 127.49L175.839 128.545C176.536 127.725 177.477 127.314 178.66 127.314C179.99 127.314 180.896 127.824 181.376 128.844C181.692 128.387 182.103 128.018 182.606 127.736C183.116 127.455 183.717 127.314 184.408 127.314C186.494 127.314 187.555 128.419 187.59 130.628V137H185.964V130.725C185.964 130.045 185.809 129.538 185.498 129.204C185.188 128.864 184.666 128.694 183.934 128.694C183.33 128.694 182.829 128.876 182.431 129.239C182.032 129.597 181.801 130.08 181.736 130.689V137H180.102V130.769C180.102 129.386 179.425 128.694 178.071 128.694C177.005 128.694 176.275 129.148 175.883 130.057V137H174.257V127.49H175.795ZM189.62 132.157C189.62 131.226 189.802 130.388 190.165 129.644C190.534 128.899 191.044 128.325 191.694 127.921C192.351 127.517 193.098 127.314 193.936 127.314C195.23 127.314 196.276 127.763 197.073 128.659C197.876 129.556 198.277 130.748 198.277 132.236V132.351C198.277 133.276 198.099 134.108 197.741 134.847C197.39 135.579 196.883 136.15 196.221 136.561C195.564 136.971 194.809 137.176 193.953 137.176C192.664 137.176 191.618 136.728 190.815 135.831C190.019 134.935 189.62 133.748 189.62 132.271V132.157ZM191.255 132.351C191.255 133.405 191.498 134.252 191.984 134.891C192.477 135.529 193.133 135.849 193.953 135.849C194.779 135.849 195.436 135.526 195.922 134.882C196.408 134.231 196.651 133.323 196.651 132.157C196.651 131.114 196.402 130.271 195.904 129.626C195.412 128.976 194.756 128.65 193.936 128.65C193.133 128.65 192.485 128.97 191.993 129.608C191.501 130.247 191.255 131.161 191.255 132.351ZM201.854 127.49L201.907 128.686C202.634 127.771 203.583 127.314 204.755 127.314C206.765 127.314 207.778 128.448 207.796 130.716V137H206.17V130.707C206.164 130.021 206.006 129.515 205.695 129.187C205.391 128.858 204.913 128.694 204.263 128.694C203.735 128.694 203.272 128.835 202.874 129.116C202.476 129.397 202.165 129.767 201.942 130.224V137H200.316V127.49H201.854ZM214.194 137.176C212.905 137.176 211.856 136.754 211.048 135.91C210.239 135.061 209.835 133.927 209.835 132.509V132.21C209.835 131.267 210.014 130.426 210.371 129.688C210.734 128.943 211.238 128.363 211.883 127.947C212.533 127.525 213.236 127.314 213.992 127.314C215.229 127.314 216.189 127.722 216.875 128.536C217.561 129.351 217.903 130.517 217.903 132.034V132.711H211.461C211.484 133.648 211.757 134.407 212.278 134.987C212.806 135.562 213.474 135.849 214.282 135.849C214.856 135.849 215.343 135.731 215.741 135.497C216.14 135.263 216.488 134.952 216.787 134.565L217.78 135.339C216.983 136.563 215.788 137.176 214.194 137.176ZM213.992 128.65C213.336 128.65 212.785 128.891 212.34 129.371C211.895 129.846 211.619 130.514 211.514 131.375H216.277V131.252C216.23 130.426 216.008 129.787 215.609 129.336C215.211 128.879 214.672 128.65 213.992 128.65ZM222.781 134.618L224.996 127.49H226.736L222.913 138.468C222.321 140.05 221.381 140.841 220.092 140.841L219.784 140.814L219.178 140.7V139.382L219.617 139.417C220.168 139.417 220.596 139.306 220.9 139.083C221.211 138.86 221.466 138.453 221.665 137.861L222.025 136.895L218.633 127.49H220.408L222.781 134.618ZM27.9277 168.702H29.7031V170.029H27.9277V173H26.293V170.029H20.4658V169.071L26.1963 160.203H27.9277V168.702ZM22.3115 168.702H26.293V162.427L26.0996 162.778L22.3115 168.702ZM39.1953 167.542C39.1953 169.446 38.8701 170.861 38.2197 171.787C37.5693 172.713 36.5527 173.176 35.1699 173.176C33.8047 173.176 32.7939 172.725 32.1377 171.822C31.4814 170.914 31.1416 169.561 31.1182 167.762V165.591C31.1182 163.71 31.4434 162.312 32.0938 161.398C32.7441 160.484 33.7637 160.027 35.1523 160.027C36.5293 160.027 37.543 160.47 38.1934 161.354C38.8438 162.233 39.1777 163.593 39.1953 165.433V167.542ZM37.5693 165.318C37.5693 163.941 37.376 162.939 36.9893 162.312C36.6025 161.68 35.9902 161.363 35.1523 161.363C34.3203 161.363 33.7139 161.677 33.333 162.304C32.9521 162.931 32.7559 163.895 32.7441 165.195V167.797C32.7441 169.18 32.9434 170.202 33.3418 170.864C33.7461 171.521 34.3555 171.849 35.1699 171.849C35.9727 171.849 36.5674 171.538 36.9541 170.917C37.3467 170.296 37.5518 169.317 37.5693 167.981V165.318ZM49.3027 167.542C49.3027 169.446 48.9775 170.861 48.3271 171.787C47.6768 172.713 46.6602 173.176 45.2773 173.176C43.9121 173.176 42.9014 172.725 42.2451 171.822C41.5889 170.914 41.249 169.561 41.2256 167.762V165.591C41.2256 163.71 41.5508 162.312 42.2012 161.398C42.8516 160.484 43.8711 160.027 45.2598 160.027C46.6367 160.027 47.6504 160.47 48.3008 161.354C48.9512 162.233 49.2852 163.593 49.3027 165.433V167.542ZM47.6768 165.318C47.6768 163.941 47.4834 162.939 47.0967 162.312C46.71 161.68 46.0977 161.363 45.2598 161.363C44.4277 161.363 43.8213 161.677 43.4404 162.304C43.0596 162.931 42.8633 163.895 42.8516 165.195V167.797C42.8516 169.18 43.0508 170.202 43.4492 170.864C43.8535 171.521 44.4629 171.849 45.2773 171.849C46.0801 171.849 46.6748 171.538 47.0615 170.917C47.4541 170.296 47.6592 169.317 47.6768 167.981V165.318ZM57.8457 169.704C57.8457 169.165 57.6553 168.711 57.2744 168.342C56.8994 167.973 56.2637 167.639 55.3672 167.34C54.1191 166.959 53.208 166.464 52.6338 165.854C52.0654 165.239 51.7812 164.46 51.7812 163.517C51.7812 162.556 52.0596 161.768 52.6162 161.152C53.1787 160.537 53.9492 160.171 54.9277 160.054V158.129H56.2373V160.062C57.2217 160.197 57.9863 160.61 58.5312 161.302C59.082 161.993 59.3574 162.939 59.3574 164.141H57.7402C57.7402 163.314 57.5439 162.658 57.1514 162.172C56.7588 161.686 56.2285 161.442 55.5605 161.442C54.8633 161.442 54.3301 161.624 53.9609 161.987C53.5918 162.345 53.4072 162.846 53.4072 163.49C53.4072 164.088 53.6006 164.565 53.9873 164.923C54.3799 165.274 55.0215 165.597 55.9121 165.89C56.8086 166.177 57.5059 166.496 58.0039 166.848C58.5078 167.193 58.877 167.598 59.1113 168.061C59.3516 168.523 59.4717 169.065 59.4717 169.687C59.4717 170.677 59.1729 171.474 58.5752 172.077C57.9834 172.681 57.1514 173.038 56.0791 173.149V174.828H54.7783V173.149C53.6885 173.05 52.833 172.663 52.2119 171.989C51.5967 171.31 51.2891 170.39 51.2891 169.229H52.915C52.915 170.044 53.1289 170.671 53.5566 171.11C53.9844 171.55 54.5908 171.77 55.376 171.77C56.1436 171.77 56.7471 171.585 57.1865 171.216C57.626 170.847 57.8457 170.343 57.8457 169.704ZM66.9248 173V164.747H65.4219V163.49H66.9248V162.515C66.9248 161.495 67.1973 160.707 67.7422 160.15C68.2871 159.594 69.0576 159.315 70.0537 159.315C70.4287 159.315 70.8008 159.365 71.1699 159.465L71.082 160.783C70.8066 160.73 70.5137 160.704 70.2031 160.704C69.6758 160.704 69.2686 160.859 68.9814 161.17C68.6943 161.475 68.5508 161.914 68.5508 162.488V163.49H70.5811V164.747H68.5508V173H66.9248ZM71.9521 168.157C71.9521 167.226 72.1338 166.388 72.4971 165.644C72.8662 164.899 73.376 164.325 74.0264 163.921C74.6826 163.517 75.4297 163.314 76.2676 163.314C77.5625 163.314 78.6084 163.763 79.4053 164.659C80.208 165.556 80.6094 166.748 80.6094 168.236V168.351C80.6094 169.276 80.4307 170.108 80.0732 170.847C79.7217 171.579 79.2148 172.15 78.5527 172.561C77.8965 172.971 77.1406 173.176 76.2852 173.176C74.9961 173.176 73.9502 172.728 73.1475 171.831C72.3506 170.935 71.9521 169.748 71.9521 168.271V168.157ZM73.5869 168.351C73.5869 169.405 73.8301 170.252 74.3164 170.891C74.8086 171.529 75.4648 171.849 76.2852 171.849C77.1113 171.849 77.7676 171.526 78.2539 170.882C78.7402 170.231 78.9834 169.323 78.9834 168.157C78.9834 167.114 78.7344 166.271 78.2363 165.626C77.7441 164.976 77.0879 164.65 76.2676 164.65C75.4648 164.65 74.8174 164.97 74.3252 165.608C73.833 166.247 73.5869 167.161 73.5869 168.351ZM87.2451 164.949C86.999 164.908 86.7324 164.888 86.4453 164.888C85.3789 164.888 84.6553 165.342 84.2744 166.25V173H82.6484V163.49H84.2305L84.2568 164.589C84.79 163.739 85.5459 163.314 86.5244 163.314C86.8408 163.314 87.0811 163.355 87.2451 163.438V164.949ZM97.8096 164.949C97.5635 164.908 97.2969 164.888 97.0098 164.888C95.9434 164.888 95.2197 165.342 94.8389 166.25V173H93.2129V163.49H94.7949L94.8213 164.589C95.3545 163.739 96.1104 163.314 97.0889 163.314C97.4053 163.314 97.6455 163.355 97.8096 163.438V164.949ZM103.083 173.176C101.794 173.176 100.745 172.754 99.9365 171.91C99.1279 171.061 98.7236 169.927 98.7236 168.509V168.21C98.7236 167.267 98.9023 166.426 99.2598 165.688C99.623 164.943 100.127 164.363 100.771 163.947C101.422 163.525 102.125 163.314 102.881 163.314C104.117 163.314 105.078 163.722 105.764 164.536C106.449 165.351 106.792 166.517 106.792 168.034V168.711H100.35C100.373 169.648 100.646 170.407 101.167 170.987C101.694 171.562 102.362 171.849 103.171 171.849C103.745 171.849 104.231 171.731 104.63 171.497C105.028 171.263 105.377 170.952 105.676 170.565L106.669 171.339C105.872 172.563 104.677 173.176 103.083 173.176ZM102.881 164.65C102.225 164.65 101.674 164.891 101.229 165.371C100.783 165.846 100.508 166.514 100.402 167.375H105.166V167.252C105.119 166.426 104.896 165.787 104.498 165.336C104.1 164.879 103.561 164.65 102.881 164.65ZM110.22 163.49L110.272 164.686C110.999 163.771 111.948 163.314 113.12 163.314C115.13 163.314 116.144 164.448 116.161 166.716V173H114.535V166.707C114.529 166.021 114.371 165.515 114.061 165.187C113.756 164.858 113.278 164.694 112.628 164.694C112.101 164.694 111.638 164.835 111.239 165.116C110.841 165.397 110.53 165.767 110.308 166.224V173H108.682V163.49H110.22ZM120.819 161.188V163.49H122.595V164.747H120.819V170.645C120.819 171.025 120.898 171.312 121.057 171.506C121.215 171.693 121.484 171.787 121.865 171.787C122.053 171.787 122.311 171.752 122.639 171.682V173C122.211 173.117 121.795 173.176 121.391 173.176C120.664 173.176 120.116 172.956 119.747 172.517C119.378 172.077 119.193 171.453 119.193 170.645V164.747H117.462V163.49H119.193V161.188H120.819ZM29.4482 209H21.0635V207.831L25.4932 202.909C26.1494 202.165 26.6006 201.562 26.8467 201.099C27.0986 200.63 27.2246 200.146 27.2246 199.648C27.2246 198.98 27.0225 198.433 26.6182 198.005C26.2139 197.577 25.6748 197.363 25.001 197.363C24.1924 197.363 23.5625 197.595 23.1113 198.058C22.666 198.515 22.4434 199.153 22.4434 199.974H20.8174C20.8174 198.796 21.1953 197.844 21.9512 197.117C22.7129 196.391 23.7295 196.027 25.001 196.027C26.1904 196.027 27.1309 196.341 27.8223 196.968C28.5137 197.589 28.8594 198.418 28.8594 199.455C28.8594 200.715 28.0566 202.215 26.4512 203.955L23.0234 207.673H29.4482V209ZM39.1953 203.542C39.1953 205.446 38.8701 206.861 38.2197 207.787C37.5693 208.713 36.5527 209.176 35.1699 209.176C33.8047 209.176 32.7939 208.725 32.1377 207.822C31.4814 206.914 31.1416 205.561 31.1182 203.762V201.591C31.1182 199.71 31.4434 198.312 32.0938 197.398C32.7441 196.484 33.7637 196.027 35.1523 196.027C36.5293 196.027 37.543 196.47 38.1934 197.354C38.8438 198.233 39.1777 199.593 39.1953 201.433V203.542ZM37.5693 201.318C37.5693 199.941 37.376 198.939 36.9893 198.312C36.6025 197.68 35.9902 197.363 35.1523 197.363C34.3203 197.363 33.7139 197.677 33.333 198.304C32.9521 198.931 32.7559 199.895 32.7441 201.195V203.797C32.7441 205.18 32.9434 206.202 33.3418 206.864C33.7461 207.521 34.3555 207.849 35.1699 207.849C35.9727 207.849 36.5674 207.538 36.9541 206.917C37.3467 206.296 37.5518 205.317 37.5693 203.981V201.318ZM47.7383 205.704C47.7383 205.165 47.5479 204.711 47.167 204.342C46.792 203.973 46.1562 203.639 45.2598 203.34C44.0117 202.959 43.1006 202.464 42.5264 201.854C41.958 201.239 41.6738 200.46 41.6738 199.517C41.6738 198.556 41.9521 197.768 42.5088 197.152C43.0713 196.537 43.8418 196.171 44.8203 196.054V194.129H46.1299V196.062C47.1143 196.197 47.8789 196.61 48.4238 197.302C48.9746 197.993 49.25 198.939 49.25 200.141H47.6328C47.6328 199.314 47.4365 198.658 47.0439 198.172C46.6514 197.686 46.1211 197.442 45.4531 197.442C44.7559 197.442 44.2227 197.624 43.8535 197.987C43.4844 198.345 43.2998 198.846 43.2998 199.49C43.2998 200.088 43.4932 200.565 43.8799 200.923C44.2725 201.274 44.9141 201.597 45.8047 201.89C46.7012 202.177 47.3984 202.496 47.8965 202.848C48.4004 203.193 48.7695 203.598 49.0039 204.061C49.2441 204.523 49.3643 205.065 49.3643 205.687C49.3643 206.677 49.0654 207.474 48.4678 208.077C47.876 208.681 47.0439 209.038 45.9717 209.149V210.828H44.6709V209.149C43.5811 209.05 42.7256 208.663 42.1045 207.989C41.4893 207.31 41.1816 206.39 41.1816 205.229H42.8076C42.8076 206.044 43.0215 206.671 43.4492 207.11C43.877 207.55 44.4834 207.77 45.2686 207.77C46.0361 207.77 46.6396 207.585 47.0791 207.216C47.5186 206.847 47.7383 206.343 47.7383 205.704ZM56.8174 209V200.747H55.3145V199.49H56.8174V198.515C56.8174 197.495 57.0898 196.707 57.6348 196.15C58.1797 195.594 58.9502 195.315 59.9463 195.315C60.3213 195.315 60.6934 195.365 61.0625 195.465L60.9746 196.783C60.6992 196.73 60.4062 196.704 60.0957 196.704C59.5684 196.704 59.1611 196.859 58.874 197.17C58.5869 197.475 58.4434 197.914 58.4434 198.488V199.49H60.4736V200.747H58.4434V209H56.8174ZM61.8447 204.157C61.8447 203.226 62.0264 202.388 62.3896 201.644C62.7588 200.899 63.2686 200.325 63.9189 199.921C64.5752 199.517 65.3223 199.314 66.1602 199.314C67.4551 199.314 68.501 199.763 69.2979 200.659C70.1006 201.556 70.502 202.748 70.502 204.236V204.351C70.502 205.276 70.3232 206.108 69.9658 206.847C69.6143 207.579 69.1074 208.15 68.4453 208.561C67.7891 208.971 67.0332 209.176 66.1777 209.176C64.8887 209.176 63.8428 208.728 63.04 207.831C62.2432 206.935 61.8447 205.748 61.8447 204.271V204.157ZM63.4795 204.351C63.4795 205.405 63.7227 206.252 64.209 206.891C64.7012 207.529 65.3574 207.849 66.1777 207.849C67.0039 207.849 67.6602 207.526 68.1465 206.882C68.6328 206.231 68.876 205.323 68.876 204.157C68.876 203.114 68.627 202.271 68.1289 201.626C67.6367 200.976 66.9805 200.65 66.1602 200.65C65.3574 200.65 64.71 200.97 64.2178 201.608C63.7256 202.247 63.4795 203.161 63.4795 204.351ZM77.1377 200.949C76.8916 200.908 76.625 200.888 76.3379 200.888C75.2715 200.888 74.5479 201.342 74.167 202.25V209H72.541V199.49H74.123L74.1494 200.589C74.6826 199.739 75.4385 199.314 76.417 199.314C76.7334 199.314 76.9736 199.355 77.1377 199.438V200.949ZM84.8721 209H83.2461V195.5H84.8721V209ZM87.0518 204.157C87.0518 203.226 87.2334 202.388 87.5967 201.644C87.9658 200.899 88.4756 200.325 89.126 199.921C89.7822 199.517 90.5293 199.314 91.3672 199.314C92.6621 199.314 93.708 199.763 94.5049 200.659C95.3076 201.556 95.709 202.748 95.709 204.236V204.351C95.709 205.276 95.5303 206.108 95.1729 206.847C94.8213 207.579 94.3145 208.15 93.6523 208.561C92.9961 208.971 92.2402 209.176 91.3848 209.176C90.0957 209.176 89.0498 208.728 88.2471 207.831C87.4502 206.935 87.0518 205.748 87.0518 204.271V204.157ZM88.6865 204.351C88.6865 205.405 88.9297 206.252 89.416 206.891C89.9082 207.529 90.5645 207.849 91.3848 207.849C92.2109 207.849 92.8672 207.526 93.3535 206.882C93.8398 206.231 94.083 205.323 94.083 204.157C94.083 203.114 93.834 202.271 93.3359 201.626C92.8438 200.976 92.1875 200.65 91.3672 200.65C90.5645 200.65 89.917 200.97 89.4248 201.608C88.9326 202.247 88.6865 203.161 88.6865 204.351ZM103.619 209C103.525 208.812 103.449 208.479 103.391 207.998C102.635 208.783 101.732 209.176 100.684 209.176C99.7461 209.176 98.9756 208.912 98.3721 208.385C97.7744 207.852 97.4756 207.178 97.4756 206.363C97.4756 205.373 97.8506 204.605 98.6006 204.061C99.3564 203.51 100.417 203.234 101.782 203.234H103.364V202.487C103.364 201.919 103.194 201.468 102.854 201.134C102.515 200.794 102.014 200.624 101.352 200.624C100.771 200.624 100.285 200.771 99.8926 201.063C99.5 201.356 99.3037 201.711 99.3037 202.127H97.6689C97.6689 201.652 97.8359 201.195 98.1699 200.756C98.5098 200.311 98.9668 199.959 99.541 199.701C100.121 199.443 100.757 199.314 101.448 199.314C102.544 199.314 103.402 199.59 104.023 200.141C104.645 200.686 104.967 201.438 104.99 202.399V206.776C104.99 207.649 105.102 208.344 105.324 208.859V209H103.619ZM100.921 207.761C101.431 207.761 101.914 207.629 102.371 207.365C102.828 207.102 103.159 206.759 103.364 206.337V204.386H102.09C100.098 204.386 99.1016 204.969 99.1016 206.135C99.1016 206.645 99.2715 207.043 99.6113 207.33C99.9512 207.617 100.388 207.761 100.921 207.761ZM109.077 199.49L109.13 200.686C109.856 199.771 110.806 199.314 111.978 199.314C113.987 199.314 115.001 200.448 115.019 202.716V209H113.393V202.707C113.387 202.021 113.229 201.515 112.918 201.187C112.613 200.858 112.136 200.694 111.485 200.694C110.958 200.694 110.495 200.835 110.097 201.116C109.698 201.397 109.388 201.767 109.165 202.224V209H107.539V199.49H109.077ZM126.532 200.949C126.286 200.908 126.02 200.888 125.732 200.888C124.666 200.888 123.942 201.342 123.562 202.25V209H121.936V199.49H123.518L123.544 200.589C124.077 199.739 124.833 199.314 125.812 199.314C126.128 199.314 126.368 199.355 126.532 199.438V200.949ZM131.806 209.176C130.517 209.176 129.468 208.754 128.659 207.91C127.851 207.061 127.446 205.927 127.446 204.509V204.21C127.446 203.267 127.625 202.426 127.982 201.688C128.346 200.943 128.85 200.363 129.494 199.947C130.145 199.525 130.848 199.314 131.604 199.314C132.84 199.314 133.801 199.722 134.486 200.536C135.172 201.351 135.515 202.517 135.515 204.034V204.711H129.072C129.096 205.648 129.368 206.407 129.89 206.987C130.417 207.562 131.085 207.849 131.894 207.849C132.468 207.849 132.954 207.731 133.353 207.497C133.751 207.263 134.1 206.952 134.398 206.565L135.392 207.339C134.595 208.563 133.399 209.176 131.806 209.176ZM131.604 200.65C130.947 200.65 130.396 200.891 129.951 201.371C129.506 201.846 129.23 202.514 129.125 203.375H133.889V203.252C133.842 202.426 133.619 201.787 133.221 201.336C132.822 200.879 132.283 200.65 131.604 200.65ZM145.438 204.351C145.438 205.798 145.106 206.964 144.444 207.849C143.782 208.733 142.886 209.176 141.755 209.176C140.601 209.176 139.692 208.81 139.03 208.077V212.656H137.404V199.49H138.89L138.969 200.545C139.631 199.725 140.551 199.314 141.729 199.314C142.871 199.314 143.773 199.745 144.436 200.606C145.104 201.468 145.438 202.666 145.438 204.201V204.351ZM143.812 204.166C143.812 203.094 143.583 202.247 143.126 201.626C142.669 201.005 142.042 200.694 141.245 200.694C140.261 200.694 139.522 201.131 139.03 202.004V206.548C139.517 207.415 140.261 207.849 141.263 207.849C142.042 207.849 142.66 207.541 143.117 206.926C143.58 206.305 143.812 205.385 143.812 204.166ZM153.383 209C153.289 208.812 153.213 208.479 153.154 207.998C152.398 208.783 151.496 209.176 150.447 209.176C149.51 209.176 148.739 208.912 148.136 208.385C147.538 207.852 147.239 207.178 147.239 206.363C147.239 205.373 147.614 204.605 148.364 204.061C149.12 203.51 150.181 203.234 151.546 203.234H153.128V202.487C153.128 201.919 152.958 201.468 152.618 201.134C152.278 200.794 151.777 200.624 151.115 200.624C150.535 200.624 150.049 200.771 149.656 201.063C149.264 201.356 149.067 201.711 149.067 202.127H147.433C147.433 201.652 147.6 201.195 147.934 200.756C148.273 200.311 148.73 199.959 149.305 199.701C149.885 199.443 150.521 199.314 151.212 199.314C152.308 199.314 153.166 199.59 153.787 200.141C154.408 200.686 154.73 201.438 154.754 202.399V206.776C154.754 207.649 154.865 208.344 155.088 208.859V209H153.383ZM150.685 207.761C151.194 207.761 151.678 207.629 152.135 207.365C152.592 207.102 152.923 206.759 153.128 206.337V204.386H151.854C149.861 204.386 148.865 204.969 148.865 206.135C148.865 206.645 149.035 207.043 149.375 207.33C149.715 207.617 150.151 207.761 150.685 207.761ZM160.273 206.618L162.488 199.49H164.229L160.405 210.468C159.813 212.05 158.873 212.841 157.584 212.841L157.276 212.814L156.67 212.7V211.382L157.109 211.417C157.66 211.417 158.088 211.306 158.393 211.083C158.703 210.86 158.958 210.453 159.157 209.861L159.518 208.895L156.125 199.49H157.9L160.273 206.618ZM167.217 199.49L167.261 200.545C167.958 199.725 168.898 199.314 170.082 199.314C171.412 199.314 172.317 199.824 172.798 200.844C173.114 200.387 173.524 200.018 174.028 199.736C174.538 199.455 175.139 199.314 175.83 199.314C177.916 199.314 178.977 200.419 179.012 202.628V209H177.386V202.725C177.386 202.045 177.23 201.538 176.92 201.204C176.609 200.864 176.088 200.694 175.355 200.694C174.752 200.694 174.251 200.876 173.853 201.239C173.454 201.597 173.223 202.08 173.158 202.689V209H171.523V202.769C171.523 201.386 170.847 200.694 169.493 200.694C168.427 200.694 167.697 201.148 167.305 202.057V209H165.679V199.49H167.217ZM185.419 209.176C184.13 209.176 183.081 208.754 182.272 207.91C181.464 207.061 181.06 205.927 181.06 204.509V204.21C181.06 203.267 181.238 202.426 181.596 201.688C181.959 200.943 182.463 200.363 183.107 199.947C183.758 199.525 184.461 199.314 185.217 199.314C186.453 199.314 187.414 199.722 188.1 200.536C188.785 201.351 189.128 202.517 189.128 204.034V204.711H182.686C182.709 205.648 182.981 206.407 183.503 206.987C184.03 207.562 184.698 207.849 185.507 207.849C186.081 207.849 186.567 207.731 186.966 207.497C187.364 207.263 187.713 206.952 188.012 206.565L189.005 207.339C188.208 208.563 187.013 209.176 185.419 209.176ZM185.217 200.65C184.561 200.65 184.01 200.891 183.564 201.371C183.119 201.846 182.844 202.514 182.738 203.375H187.502V203.252C187.455 202.426 187.232 201.787 186.834 201.336C186.436 200.879 185.896 200.65 185.217 200.65ZM192.556 199.49L192.608 200.686C193.335 199.771 194.284 199.314 195.456 199.314C197.466 199.314 198.479 200.448 198.497 202.716V209H196.871V202.707C196.865 202.021 196.707 201.515 196.396 201.187C196.092 200.858 195.614 200.694 194.964 200.694C194.437 200.694 193.974 200.835 193.575 201.116C193.177 201.397 192.866 201.767 192.644 202.224V209H191.018V199.49H192.556ZM203.155 197.188V199.49H204.931V200.747H203.155V206.645C203.155 207.025 203.234 207.312 203.393 207.506C203.551 207.693 203.82 207.787 204.201 207.787C204.389 207.787 204.646 207.752 204.975 207.682V209C204.547 209.117 204.131 209.176 203.727 209.176C203 209.176 202.452 208.956 202.083 208.517C201.714 208.077 201.529 207.453 201.529 206.645V200.747H199.798V199.49H201.529V197.188H203.155ZM29.4482 245H21.0635V243.831L25.4932 238.909C26.1494 238.165 26.6006 237.562 26.8467 237.099C27.0986 236.63 27.2246 236.146 27.2246 235.648C27.2246 234.98 27.0225 234.433 26.6182 234.005C26.2139 233.577 25.6748 233.363 25.001 233.363C24.1924 233.363 23.5625 233.595 23.1113 234.058C22.666 234.515 22.4434 235.153 22.4434 235.974H20.8174C20.8174 234.796 21.1953 233.844 21.9512 233.117C22.7129 232.391 23.7295 232.027 25.001 232.027C26.1904 232.027 27.1309 232.341 27.8223 232.968C28.5137 233.589 28.8594 234.418 28.8594 235.455C28.8594 236.715 28.0566 238.215 26.4512 239.955L23.0234 243.673H29.4482V245ZM39.1953 239.542C39.1953 241.446 38.8701 242.861 38.2197 243.787C37.5693 244.713 36.5527 245.176 35.1699 245.176C33.8047 245.176 32.7939 244.725 32.1377 243.822C31.4814 242.914 31.1416 241.561 31.1182 239.762V237.591C31.1182 235.71 31.4434 234.312 32.0938 233.398C32.7441 232.484 33.7637 232.027 35.1523 232.027C36.5293 232.027 37.543 232.47 38.1934 233.354C38.8438 234.233 39.1777 235.593 39.1953 237.433V239.542ZM37.5693 237.318C37.5693 235.941 37.376 234.939 36.9893 234.312C36.6025 233.68 35.9902 233.363 35.1523 233.363C34.3203 233.363 33.7139 233.677 33.333 234.304C32.9521 234.931 32.7559 235.895 32.7441 237.195V239.797C32.7441 241.18 32.9434 242.202 33.3418 242.864C33.7461 243.521 34.3555 243.849 35.1699 243.849C35.9727 243.849 36.5674 243.538 36.9541 242.917C37.3467 242.296 37.5518 241.317 37.5693 239.981V237.318ZM49.3027 239.542C49.3027 241.446 48.9775 242.861 48.3271 243.787C47.6768 244.713 46.6602 245.176 45.2773 245.176C43.9121 245.176 42.9014 244.725 42.2451 243.822C41.5889 242.914 41.249 241.561 41.2256 239.762V237.591C41.2256 235.71 41.5508 234.312 42.2012 233.398C42.8516 232.484 43.8711 232.027 45.2598 232.027C46.6367 232.027 47.6504 232.47 48.3008 233.354C48.9512 234.233 49.2852 235.593 49.3027 237.433V239.542ZM47.6768 237.318C47.6768 235.941 47.4834 234.939 47.0967 234.312C46.71 233.68 46.0977 233.363 45.2598 233.363C44.4277 233.363 43.8213 233.677 43.4404 234.304C43.0596 234.931 42.8633 235.895 42.8516 237.195V239.797C42.8516 241.18 43.0508 242.202 43.4492 242.864C43.8535 243.521 44.4629 243.849 45.2773 243.849C46.0801 243.849 46.6748 243.538 47.0615 242.917C47.4541 242.296 47.6592 241.317 47.6768 239.981V237.318ZM57.8457 241.704C57.8457 241.165 57.6553 240.711 57.2744 240.342C56.8994 239.973 56.2637 239.639 55.3672 239.34C54.1191 238.959 53.208 238.464 52.6338 237.854C52.0654 237.239 51.7812 236.46 51.7812 235.517C51.7812 234.556 52.0596 233.768 52.6162 233.152C53.1787 232.537 53.9492 232.171 54.9277 232.054V230.129H56.2373V232.062C57.2217 232.197 57.9863 232.61 58.5312 233.302C59.082 233.993 59.3574 234.939 59.3574 236.141H57.7402C57.7402 235.314 57.5439 234.658 57.1514 234.172C56.7588 233.686 56.2285 233.442 55.5605 233.442C54.8633 233.442 54.3301 233.624 53.9609 233.987C53.5918 234.345 53.4072 234.846 53.4072 235.49C53.4072 236.088 53.6006 236.565 53.9873 236.923C54.3799 237.274 55.0215 237.597 55.9121 237.89C56.8086 238.177 57.5059 238.496 58.0039 238.848C58.5078 239.193 58.877 239.598 59.1113 240.061C59.3516 240.523 59.4717 241.065 59.4717 241.687C59.4717 242.677 59.1729 243.474 58.5752 244.077C57.9834 244.681 57.1514 245.038 56.0791 245.149V246.828H54.7783V245.149C53.6885 245.05 52.833 244.663 52.2119 243.989C51.5967 243.31 51.2891 242.39 51.2891 241.229H52.915C52.915 242.044 53.1289 242.671 53.5566 243.11C53.9844 243.55 54.5908 243.77 55.376 243.77C56.1436 243.77 56.7471 243.585 57.1865 243.216C57.626 242.847 57.8457 242.343 57.8457 241.704ZM66.9248 245V236.747H65.4219V235.49H66.9248V234.515C66.9248 233.495 67.1973 232.707 67.7422 232.15C68.2871 231.594 69.0576 231.315 70.0537 231.315C70.4287 231.315 70.8008 231.365 71.1699 231.465L71.082 232.783C70.8066 232.73 70.5137 232.704 70.2031 232.704C69.6758 232.704 69.2686 232.859 68.9814 233.17C68.6943 233.475 68.5508 233.914 68.5508 234.488V235.49H70.5811V236.747H68.5508V245H66.9248ZM71.9521 240.157C71.9521 239.226 72.1338 238.388 72.4971 237.644C72.8662 236.899 73.376 236.325 74.0264 235.921C74.6826 235.517 75.4297 235.314 76.2676 235.314C77.5625 235.314 78.6084 235.763 79.4053 236.659C80.208 237.556 80.6094 238.748 80.6094 240.236V240.351C80.6094 241.276 80.4307 242.108 80.0732 242.847C79.7217 243.579 79.2148 244.15 78.5527 244.561C77.8965 244.971 77.1406 245.176 76.2852 245.176C74.9961 245.176 73.9502 244.728 73.1475 243.831C72.3506 242.935 71.9521 241.748 71.9521 240.271V240.157ZM73.5869 240.351C73.5869 241.405 73.8301 242.252 74.3164 242.891C74.8086 243.529 75.4648 243.849 76.2852 243.849C77.1113 243.849 77.7676 243.526 78.2539 242.882C78.7402 242.231 78.9834 241.323 78.9834 240.157C78.9834 239.114 78.7344 238.271 78.2363 237.626C77.7441 236.976 77.0879 236.65 76.2676 236.65C75.4648 236.65 74.8174 236.97 74.3252 237.608C73.833 238.247 73.5869 239.161 73.5869 240.351ZM87.2451 236.949C86.999 236.908 86.7324 236.888 86.4453 236.888C85.3789 236.888 84.6553 237.342 84.2744 238.25V245H82.6484V235.49H84.2305L84.2568 236.589C84.79 235.739 85.5459 235.314 86.5244 235.314C86.8408 235.314 87.0811 235.355 87.2451 235.438V236.949ZM94.9795 245H93.3535V231.5H94.9795V245ZM97.1592 240.157C97.1592 239.226 97.3408 238.388 97.7041 237.644C98.0732 236.899 98.583 236.325 99.2334 235.921C99.8896 235.517 100.637 235.314 101.475 235.314C102.77 235.314 103.815 235.763 104.612 236.659C105.415 237.556 105.816 238.748 105.816 240.236V240.351C105.816 241.276 105.638 242.108 105.28 242.847C104.929 243.579 104.422 244.15 103.76 244.561C103.104 244.971 102.348 245.176 101.492 245.176C100.203 245.176 99.1572 244.728 98.3545 243.831C97.5576 242.935 97.1592 241.748 97.1592 240.271V240.157ZM98.7939 240.351C98.7939 241.405 99.0371 242.252 99.5234 242.891C100.016 243.529 100.672 243.849 101.492 243.849C102.318 243.849 102.975 243.526 103.461 242.882C103.947 242.231 104.19 241.323 104.19 240.157C104.19 239.114 103.941 238.271 103.443 237.626C102.951 236.976 102.295 236.65 101.475 236.65C100.672 236.65 100.024 236.97 99.5322 237.608C99.04 238.247 98.7939 239.161 98.7939 240.351ZM113.727 245C113.633 244.812 113.557 244.479 113.498 243.998C112.742 244.783 111.84 245.176 110.791 245.176C109.854 245.176 109.083 244.912 108.479 244.385C107.882 243.852 107.583 243.178 107.583 242.363C107.583 241.373 107.958 240.605 108.708 240.061C109.464 239.51 110.524 239.234 111.89 239.234H113.472V238.487C113.472 237.919 113.302 237.468 112.962 237.134C112.622 236.794 112.121 236.624 111.459 236.624C110.879 236.624 110.393 236.771 110 237.063C109.607 237.356 109.411 237.711 109.411 238.127H107.776C107.776 237.652 107.943 237.195 108.277 236.756C108.617 236.311 109.074 235.959 109.648 235.701C110.229 235.443 110.864 235.314 111.556 235.314C112.651 235.314 113.51 235.59 114.131 236.141C114.752 236.686 115.074 237.438 115.098 238.399V242.776C115.098 243.649 115.209 244.344 115.432 244.859V245H113.727ZM111.028 243.761C111.538 243.761 112.021 243.629 112.479 243.365C112.936 243.102 113.267 242.759 113.472 242.337V240.386H112.197C110.205 240.386 109.209 240.969 109.209 242.135C109.209 242.645 109.379 243.043 109.719 243.33C110.059 243.617 110.495 243.761 111.028 243.761ZM119.185 235.49L119.237 236.686C119.964 235.771 120.913 235.314 122.085 235.314C124.095 235.314 125.108 236.448 125.126 238.716V245H123.5V238.707C123.494 238.021 123.336 237.515 123.025 237.187C122.721 236.858 122.243 236.694 121.593 236.694C121.065 236.694 120.603 236.835 120.204 237.116C119.806 237.397 119.495 237.767 119.272 238.224V245H117.646V235.49H119.185ZM136.64 236.949C136.394 236.908 136.127 236.888 135.84 236.888C134.773 236.888 134.05 237.342 133.669 238.25V245H132.043V235.49H133.625L133.651 236.589C134.185 235.739 134.94 235.314 135.919 235.314C136.235 235.314 136.476 235.355 136.64 235.438V236.949ZM141.913 245.176C140.624 245.176 139.575 244.754 138.767 243.91C137.958 243.061 137.554 241.927 137.554 240.509V240.21C137.554 239.267 137.732 238.426 138.09 237.688C138.453 236.943 138.957 236.363 139.602 235.947C140.252 235.525 140.955 235.314 141.711 235.314C142.947 235.314 143.908 235.722 144.594 236.536C145.279 237.351 145.622 238.517 145.622 240.034V240.711H139.18C139.203 241.648 139.476 242.407 139.997 242.987C140.524 243.562 141.192 243.849 142.001 243.849C142.575 243.849 143.062 243.731 143.46 243.497C143.858 243.263 144.207 242.952 144.506 242.565L145.499 243.339C144.702 244.563 143.507 245.176 141.913 245.176ZM141.711 236.65C141.055 236.65 140.504 236.891 140.059 237.371C139.613 237.846 139.338 238.514 139.232 239.375H143.996V239.252C143.949 238.426 143.727 237.787 143.328 237.336C142.93 236.879 142.391 236.65 141.711 236.65ZM155.545 240.351C155.545 241.798 155.214 242.964 154.552 243.849C153.89 244.733 152.993 245.176 151.862 245.176C150.708 245.176 149.8 244.81 149.138 244.077V248.656H147.512V235.49H148.997L149.076 236.545C149.738 235.725 150.658 235.314 151.836 235.314C152.979 235.314 153.881 235.745 154.543 236.606C155.211 237.468 155.545 238.666 155.545 240.201V240.351ZM153.919 240.166C153.919 239.094 153.69 238.247 153.233 237.626C152.776 237.005 152.149 236.694 151.353 236.694C150.368 236.694 149.63 237.131 149.138 238.004V242.548C149.624 243.415 150.368 243.849 151.37 243.849C152.149 243.849 152.768 243.541 153.225 242.926C153.688 242.305 153.919 241.385 153.919 240.166ZM163.49 245C163.396 244.812 163.32 244.479 163.262 243.998C162.506 244.783 161.604 245.176 160.555 245.176C159.617 245.176 158.847 244.912 158.243 244.385C157.646 243.852 157.347 243.178 157.347 242.363C157.347 241.373 157.722 240.605 158.472 240.061C159.228 239.51 160.288 239.234 161.653 239.234H163.235V238.487C163.235 237.919 163.065 237.468 162.726 237.134C162.386 236.794 161.885 236.624 161.223 236.624C160.643 236.624 160.156 236.771 159.764 237.063C159.371 237.356 159.175 237.711 159.175 238.127H157.54C157.54 237.652 157.707 237.195 158.041 236.756C158.381 236.311 158.838 235.959 159.412 235.701C159.992 235.443 160.628 235.314 161.319 235.314C162.415 235.314 163.273 235.59 163.895 236.141C164.516 236.686 164.838 237.438 164.861 238.399V242.776C164.861 243.649 164.973 244.344 165.195 244.859V245H163.49ZM160.792 243.761C161.302 243.761 161.785 243.629 162.242 243.365C162.699 243.102 163.03 242.759 163.235 242.337V240.386H161.961C159.969 240.386 158.973 240.969 158.973 242.135C158.973 242.645 159.143 243.043 159.482 243.33C159.822 243.617 160.259 243.761 160.792 243.761ZM170.381 242.618L172.596 235.49H174.336L170.513 246.468C169.921 248.05 168.98 248.841 167.691 248.841L167.384 248.814L166.777 248.7V247.382L167.217 247.417C167.768 247.417 168.195 247.306 168.5 247.083C168.811 246.86 169.065 246.453 169.265 245.861L169.625 244.895L166.232 235.49H168.008L170.381 242.618ZM177.324 235.49L177.368 236.545C178.065 235.725 179.006 235.314 180.189 235.314C181.52 235.314 182.425 235.824 182.905 236.844C183.222 236.387 183.632 236.018 184.136 235.736C184.646 235.455 185.246 235.314 185.938 235.314C188.023 235.314 189.084 236.419 189.119 238.628V245H187.493V238.725C187.493 238.045 187.338 237.538 187.027 237.204C186.717 236.864 186.195 236.694 185.463 236.694C184.859 236.694 184.358 236.876 183.96 237.239C183.562 237.597 183.33 238.08 183.266 238.689V245H181.631V238.769C181.631 237.386 180.954 236.694 179.601 236.694C178.534 236.694 177.805 237.148 177.412 238.057V245H175.786V235.49H177.324ZM195.526 245.176C194.237 245.176 193.188 244.754 192.38 243.91C191.571 243.061 191.167 241.927 191.167 240.509V240.21C191.167 239.267 191.346 238.426 191.703 237.688C192.066 236.943 192.57 236.363 193.215 235.947C193.865 235.525 194.568 235.314 195.324 235.314C196.561 235.314 197.521 235.722 198.207 236.536C198.893 237.351 199.235 238.517 199.235 240.034V240.711H192.793C192.816 241.648 193.089 242.407 193.61 242.987C194.138 243.562 194.806 243.849 195.614 243.849C196.188 243.849 196.675 243.731 197.073 243.497C197.472 243.263 197.82 242.952 198.119 242.565L199.112 243.339C198.315 244.563 197.12 245.176 195.526 245.176ZM195.324 236.65C194.668 236.65 194.117 236.891 193.672 237.371C193.227 237.846 192.951 238.514 192.846 239.375H197.609V239.252C197.562 238.426 197.34 237.787 196.941 237.336C196.543 236.879 196.004 236.65 195.324 236.65ZM202.663 235.49L202.716 236.686C203.442 235.771 204.392 235.314 205.563 235.314C207.573 235.314 208.587 236.448 208.604 238.716V245H206.979V238.707C206.973 238.021 206.814 237.515 206.504 237.187C206.199 236.858 205.722 236.694 205.071 236.694C204.544 236.694 204.081 236.835 203.683 237.116C203.284 237.397 202.974 237.767 202.751 238.224V245H201.125V235.49H202.663ZM213.263 233.188V235.49H215.038V236.747H213.263V242.645C213.263 243.025 213.342 243.312 213.5 243.506C213.658 243.693 213.928 243.787 214.309 243.787C214.496 243.787 214.754 243.752 215.082 243.682V245C214.654 245.117 214.238 245.176 213.834 245.176C213.107 245.176 212.56 244.956 212.19 244.517C211.821 244.077 211.637 243.453 211.637 242.645V236.747H209.905V235.49H211.637V233.188H213.263ZM29.4482 281H21.0635V279.831L25.4932 274.909C26.1494 274.165 26.6006 273.562 26.8467 273.099C27.0986 272.63 27.2246 272.146 27.2246 271.648C27.2246 270.98 27.0225 270.433 26.6182 270.005C26.2139 269.577 25.6748 269.363 25.001 269.363C24.1924 269.363 23.5625 269.595 23.1113 270.058C22.666 270.515 22.4434 271.153 22.4434 271.974H20.8174C20.8174 270.796 21.1953 269.844 21.9512 269.117C22.7129 268.391 23.7295 268.027 25.001 268.027C26.1904 268.027 27.1309 268.341 27.8223 268.968C28.5137 269.589 28.8594 270.418 28.8594 271.455C28.8594 272.715 28.0566 274.215 26.4512 275.955L23.0234 279.673H29.4482V281ZM39.1953 275.542C39.1953 277.446 38.8701 278.861 38.2197 279.787C37.5693 280.713 36.5527 281.176 35.1699 281.176C33.8047 281.176 32.7939 280.725 32.1377 279.822C31.4814 278.914 31.1416 277.561 31.1182 275.762V273.591C31.1182 271.71 31.4434 270.312 32.0938 269.398C32.7441 268.484 33.7637 268.027 35.1523 268.027C36.5293 268.027 37.543 268.47 38.1934 269.354C38.8438 270.233 39.1777 271.593 39.1953 273.433V275.542ZM37.5693 273.318C37.5693 271.941 37.376 270.939 36.9893 270.312C36.6025 269.68 35.9902 269.363 35.1523 269.363C34.3203 269.363 33.7139 269.677 33.333 270.304C32.9521 270.931 32.7559 271.895 32.7441 273.195V275.797C32.7441 277.18 32.9434 278.202 33.3418 278.864C33.7461 279.521 34.3555 279.849 35.1699 279.849C35.9727 279.849 36.5674 279.538 36.9541 278.917C37.3467 278.296 37.5518 277.317 37.5693 275.981V273.318ZM47.7383 277.704C47.7383 277.165 47.5479 276.711 47.167 276.342C46.792 275.973 46.1562 275.639 45.2598 275.34C44.0117 274.959 43.1006 274.464 42.5264 273.854C41.958 273.239 41.6738 272.46 41.6738 271.517C41.6738 270.556 41.9521 269.768 42.5088 269.152C43.0713 268.537 43.8418 268.171 44.8203 268.054V266.129H46.1299V268.062C47.1143 268.197 47.8789 268.61 48.4238 269.302C48.9746 269.993 49.25 270.939 49.25 272.141H47.6328C47.6328 271.314 47.4365 270.658 47.0439 270.172C46.6514 269.686 46.1211 269.442 45.4531 269.442C44.7559 269.442 44.2227 269.624 43.8535 269.987C43.4844 270.345 43.2998 270.846 43.2998 271.49C43.2998 272.088 43.4932 272.565 43.8799 272.923C44.2725 273.274 44.9141 273.597 45.8047 273.89C46.7012 274.177 47.3984 274.496 47.8965 274.848C48.4004 275.193 48.7695 275.598 49.0039 276.061C49.2441 276.523 49.3643 277.065 49.3643 277.687C49.3643 278.677 49.0654 279.474 48.4678 280.077C47.876 280.681 47.0439 281.038 45.9717 281.149V282.828H44.6709V281.149C43.5811 281.05 42.7256 280.663 42.1045 279.989C41.4893 279.31 41.1816 278.39 41.1816 277.229H42.8076C42.8076 278.044 43.0215 278.671 43.4492 279.11C43.877 279.55 44.4834 279.77 45.2686 279.77C46.0361 279.77 46.6396 279.585 47.0791 279.216C47.5186 278.847 47.7383 278.343 47.7383 277.704ZM56.8174 281V272.747H55.3145V271.49H56.8174V270.515C56.8174 269.495 57.0898 268.707 57.6348 268.15C58.1797 267.594 58.9502 267.315 59.9463 267.315C60.3213 267.315 60.6934 267.365 61.0625 267.465L60.9746 268.783C60.6992 268.73 60.4062 268.704 60.0957 268.704C59.5684 268.704 59.1611 268.859 58.874 269.17C58.5869 269.475 58.4434 269.914 58.4434 270.488V271.49H60.4736V272.747H58.4434V281H56.8174ZM61.8447 276.157C61.8447 275.226 62.0264 274.388 62.3896 273.644C62.7588 272.899 63.2686 272.325 63.9189 271.921C64.5752 271.517 65.3223 271.314 66.1602 271.314C67.4551 271.314 68.501 271.763 69.2979 272.659C70.1006 273.556 70.502 274.748 70.502 276.236V276.351C70.502 277.276 70.3232 278.108 69.9658 278.847C69.6143 279.579 69.1074 280.15 68.4453 280.561C67.7891 280.971 67.0332 281.176 66.1777 281.176C64.8887 281.176 63.8428 280.728 63.04 279.831C62.2432 278.935 61.8447 277.748 61.8447 276.271V276.157ZM63.4795 276.351C63.4795 277.405 63.7227 278.252 64.209 278.891C64.7012 279.529 65.3574 279.849 66.1777 279.849C67.0039 279.849 67.6602 279.526 68.1465 278.882C68.6328 278.231 68.876 277.323 68.876 276.157C68.876 275.114 68.627 274.271 68.1289 273.626C67.6367 272.976 66.9805 272.65 66.1602 272.65C65.3574 272.65 64.71 272.97 64.2178 273.608C63.7256 274.247 63.4795 275.161 63.4795 276.351ZM77.1377 272.949C76.8916 272.908 76.625 272.888 76.3379 272.888C75.2715 272.888 74.5479 273.342 74.167 274.25V281H72.541V271.49H74.123L74.1494 272.589C74.6826 271.739 75.4385 271.314 76.417 271.314C76.7334 271.314 76.9736 271.355 77.1377 271.438V272.949ZM84.8721 281H83.2461V267.5H84.8721V281ZM87.0518 276.157C87.0518 275.226 87.2334 274.388 87.5967 273.644C87.9658 272.899 88.4756 272.325 89.126 271.921C89.7822 271.517 90.5293 271.314 91.3672 271.314C92.6621 271.314 93.708 271.763 94.5049 272.659C95.3076 273.556 95.709 274.748 95.709 276.236V276.351C95.709 277.276 95.5303 278.108 95.1729 278.847C94.8213 279.579 94.3145 280.15 93.6523 280.561C92.9961 280.971 92.2402 281.176 91.3848 281.176C90.0957 281.176 89.0498 280.728 88.2471 279.831C87.4502 278.935 87.0518 277.748 87.0518 276.271V276.157ZM88.6865 276.351C88.6865 277.405 88.9297 278.252 89.416 278.891C89.9082 279.529 90.5645 279.849 91.3848 279.849C92.2109 279.849 92.8672 279.526 93.3535 278.882C93.8398 278.231 94.083 277.323 94.083 276.157C94.083 275.114 93.834 274.271 93.3359 273.626C92.8438 272.976 92.1875 272.65 91.3672 272.65C90.5645 272.65 89.917 272.97 89.4248 273.608C88.9326 274.247 88.6865 275.161 88.6865 276.351ZM103.619 281C103.525 280.812 103.449 280.479 103.391 279.998C102.635 280.783 101.732 281.176 100.684 281.176C99.7461 281.176 98.9756 280.912 98.3721 280.385C97.7744 279.852 97.4756 279.178 97.4756 278.363C97.4756 277.373 97.8506 276.605 98.6006 276.061C99.3564 275.51 100.417 275.234 101.782 275.234H103.364V274.487C103.364 273.919 103.194 273.468 102.854 273.134C102.515 272.794 102.014 272.624 101.352 272.624C100.771 272.624 100.285 272.771 99.8926 273.063C99.5 273.356 99.3037 273.711 99.3037 274.127H97.6689C97.6689 273.652 97.8359 273.195 98.1699 272.756C98.5098 272.311 98.9668 271.959 99.541 271.701C100.121 271.443 100.757 271.314 101.448 271.314C102.544 271.314 103.402 271.59 104.023 272.141C104.645 272.686 104.967 273.438 104.99 274.399V278.776C104.99 279.649 105.102 280.344 105.324 280.859V281H103.619ZM100.921 279.761C101.431 279.761 101.914 279.629 102.371 279.365C102.828 279.102 103.159 278.759 103.364 278.337V276.386H102.09C100.098 276.386 99.1016 276.969 99.1016 278.135C99.1016 278.645 99.2715 279.043 99.6113 279.33C99.9512 279.617 100.388 279.761 100.921 279.761ZM109.077 271.49L109.13 272.686C109.856 271.771 110.806 271.314 111.978 271.314C113.987 271.314 115.001 272.448 115.019 274.716V281H113.393V274.707C113.387 274.021 113.229 273.515 112.918 273.187C112.613 272.858 112.136 272.694 111.485 272.694C110.958 272.694 110.495 272.835 110.097 273.116C109.698 273.397 109.388 273.767 109.165 274.224V281H107.539V271.49H109.077ZM126.532 272.949C126.286 272.908 126.02 272.888 125.732 272.888C124.666 272.888 123.942 273.342 123.562 274.25V281H121.936V271.49H123.518L123.544 272.589C124.077 271.739 124.833 271.314 125.812 271.314C126.128 271.314 126.368 271.355 126.532 271.438V272.949ZM131.806 281.176C130.517 281.176 129.468 280.754 128.659 279.91C127.851 279.061 127.446 277.927 127.446 276.509V276.21C127.446 275.267 127.625 274.426 127.982 273.688C128.346 272.943 128.85 272.363 129.494 271.947C130.145 271.525 130.848 271.314 131.604 271.314C132.84 271.314 133.801 271.722 134.486 272.536C135.172 273.351 135.515 274.517 135.515 276.034V276.711H129.072C129.096 277.648 129.368 278.407 129.89 278.987C130.417 279.562 131.085 279.849 131.894 279.849C132.468 279.849 132.954 279.731 133.353 279.497C133.751 279.263 134.1 278.952 134.398 278.565L135.392 279.339C134.595 280.563 133.399 281.176 131.806 281.176ZM131.604 272.65C130.947 272.65 130.396 272.891 129.951 273.371C129.506 273.846 129.23 274.514 129.125 275.375H133.889V275.252C133.842 274.426 133.619 273.787 133.221 273.336C132.822 272.879 132.283 272.65 131.604 272.65ZM145.438 276.351C145.438 277.798 145.106 278.964 144.444 279.849C143.782 280.733 142.886 281.176 141.755 281.176C140.601 281.176 139.692 280.81 139.03 280.077V284.656H137.404V271.49H138.89L138.969 272.545C139.631 271.725 140.551 271.314 141.729 271.314C142.871 271.314 143.773 271.745 144.436 272.606C145.104 273.468 145.438 274.666 145.438 276.201V276.351ZM143.812 276.166C143.812 275.094 143.583 274.247 143.126 273.626C142.669 273.005 142.042 272.694 141.245 272.694C140.261 272.694 139.522 273.131 139.03 274.004V278.548C139.517 279.415 140.261 279.849 141.263 279.849C142.042 279.849 142.66 279.541 143.117 278.926C143.58 278.305 143.812 277.385 143.812 276.166ZM153.383 281C153.289 280.812 153.213 280.479 153.154 279.998C152.398 280.783 151.496 281.176 150.447 281.176C149.51 281.176 148.739 280.912 148.136 280.385C147.538 279.852 147.239 279.178 147.239 278.363C147.239 277.373 147.614 276.605 148.364 276.061C149.12 275.51 150.181 275.234 151.546 275.234H153.128V274.487C153.128 273.919 152.958 273.468 152.618 273.134C152.278 272.794 151.777 272.624 151.115 272.624C150.535 272.624 150.049 272.771 149.656 273.063C149.264 273.356 149.067 273.711 149.067 274.127H147.433C147.433 273.652 147.6 273.195 147.934 272.756C148.273 272.311 148.73 271.959 149.305 271.701C149.885 271.443 150.521 271.314 151.212 271.314C152.308 271.314 153.166 271.59 153.787 272.141C154.408 272.686 154.73 273.438 154.754 274.399V278.776C154.754 279.649 154.865 280.344 155.088 280.859V281H153.383ZM150.685 279.761C151.194 279.761 151.678 279.629 152.135 279.365C152.592 279.102 152.923 278.759 153.128 278.337V276.386H151.854C149.861 276.386 148.865 276.969 148.865 278.135C148.865 278.645 149.035 279.043 149.375 279.33C149.715 279.617 150.151 279.761 150.685 279.761ZM160.273 278.618L162.488 271.49H164.229L160.405 282.468C159.813 284.05 158.873 284.841 157.584 284.841L157.276 284.814L156.67 284.7V283.382L157.109 283.417C157.66 283.417 158.088 283.306 158.393 283.083C158.703 282.86 158.958 282.453 159.157 281.861L159.518 280.895L156.125 271.49H157.9L160.273 278.618ZM167.217 271.49L167.261 272.545C167.958 271.725 168.898 271.314 170.082 271.314C171.412 271.314 172.317 271.824 172.798 272.844C173.114 272.387 173.524 272.018 174.028 271.736C174.538 271.455 175.139 271.314 175.83 271.314C177.916 271.314 178.977 272.419 179.012 274.628V281H177.386V274.725C177.386 274.045 177.23 273.538 176.92 273.204C176.609 272.864 176.088 272.694 175.355 272.694C174.752 272.694 174.251 272.876 173.853 273.239C173.454 273.597 173.223 274.08 173.158 274.689V281H171.523V274.769C171.523 273.386 170.847 272.694 169.493 272.694C168.427 272.694 167.697 273.148 167.305 274.057V281H165.679V271.49H167.217ZM185.419 281.176C184.13 281.176 183.081 280.754 182.272 279.91C181.464 279.061 181.06 277.927 181.06 276.509V276.21C181.06 275.267 181.238 274.426 181.596 273.688C181.959 272.943 182.463 272.363 183.107 271.947C183.758 271.525 184.461 271.314 185.217 271.314C186.453 271.314 187.414 271.722 188.1 272.536C188.785 273.351 189.128 274.517 189.128 276.034V276.711H182.686C182.709 277.648 182.981 278.407 183.503 278.987C184.03 279.562 184.698 279.849 185.507 279.849C186.081 279.849 186.567 279.731 186.966 279.497C187.364 279.263 187.713 278.952 188.012 278.565L189.005 279.339C188.208 280.563 187.013 281.176 185.419 281.176ZM185.217 272.65C184.561 272.65 184.01 272.891 183.564 273.371C183.119 273.846 182.844 274.514 182.738 275.375H187.502V275.252C187.455 274.426 187.232 273.787 186.834 273.336C186.436 272.879 185.896 272.65 185.217 272.65ZM192.556 271.49L192.608 272.686C193.335 271.771 194.284 271.314 195.456 271.314C197.466 271.314 198.479 272.448 198.497 274.716V281H196.871V274.707C196.865 274.021 196.707 273.515 196.396 273.187C196.092 272.858 195.614 272.694 194.964 272.694C194.437 272.694 193.974 272.835 193.575 273.116C193.177 273.397 192.866 273.767 192.644 274.224V281H191.018V271.49H192.556ZM203.155 269.188V271.49H204.931V272.747H203.155V278.645C203.155 279.025 203.234 279.312 203.393 279.506C203.551 279.693 203.82 279.787 204.201 279.787C204.389 279.787 204.646 279.752 204.975 279.682V281C204.547 281.117 204.131 281.176 203.727 281.176C203 281.176 202.452 280.956 202.083 280.517C201.714 280.077 201.529 279.453 201.529 278.645V272.747H199.798V271.49H201.529V269.188H203.155Z" fill="black"/>
<line x1="21" y1="302" x2="259" y2="302" stroke="#E0E0E0" stroke-width="2" stroke-linecap="round" stroke-linejoin="round"/>
<path d="M26.0498 323.389C26.0498 323.001 25.9131 322.705 25.6396 322.5C25.3662 322.29 24.874 322.072 24.1631 321.844C23.4521 321.611 22.8893 321.383 22.4746 321.16C21.3444 320.549 20.7793 319.727 20.7793 318.692C20.7793 318.155 20.9297 317.676 21.2305 317.257C21.5358 316.833 21.971 316.503 22.5361 316.266C23.1058 316.029 23.7438 315.91 24.4502 315.91C25.1611 315.91 25.7946 316.04 26.3506 316.3C26.9066 316.555 27.3372 316.917 27.6426 317.387C27.9525 317.856 28.1074 318.389 28.1074 318.986H26.0566C26.0566 318.531 25.9131 318.177 25.626 317.927C25.3389 317.672 24.9355 317.544 24.416 317.544C23.9147 317.544 23.5251 317.651 23.2471 317.865C22.9691 318.075 22.8301 318.353 22.8301 318.699C22.8301 319.023 22.9919 319.294 23.3154 319.513C23.6436 319.731 24.1243 319.937 24.7578 320.128C25.9245 320.479 26.7744 320.914 27.3076 321.434C27.8408 321.953 28.1074 322.6 28.1074 323.375C28.1074 324.236 27.7816 324.913 27.1299 325.405C26.4782 325.893 25.6009 326.137 24.498 326.137C23.7324 326.137 23.0352 325.998 22.4062 325.72C21.7773 325.437 21.2965 325.052 20.9639 324.564C20.6357 324.077 20.4717 323.512 20.4717 322.869H22.5293C22.5293 323.967 23.1855 324.517 24.498 324.517C24.9857 324.517 25.3662 324.419 25.6396 324.223C25.9131 324.022 26.0498 323.744 26.0498 323.389ZM31.6826 326H29.6318V316.047H31.6826V326ZM35.7637 324.353H40.7812V326H33.2002V324.797L38.1221 317.708H33.207V316.047H40.6719V317.223L35.7637 324.353ZM48.0684 321.687H44.1309V324.353H48.752V326H42.0801V316.047H48.7383V317.708H44.1309V320.08H48.0684V321.687Z" fill="#333333"/>
<path d="M191.476 326H189.5V318.385L187.142 319.116V317.51L191.264 316.033H191.476V326ZM201.415 321.885C201.415 323.261 201.13 324.314 200.561 325.043C199.991 325.772 199.157 326.137 198.059 326.137C196.974 326.137 196.145 325.779 195.57 325.063C194.996 324.348 194.702 323.323 194.688 321.987V320.155C194.688 318.765 194.976 317.71 195.55 316.99C196.129 316.27 196.96 315.91 198.045 315.91C199.13 315.91 199.959 316.268 200.533 316.983C201.107 317.694 201.401 318.717 201.415 320.053V321.885ZM199.439 319.875C199.439 319.05 199.326 318.451 199.098 318.077C198.874 317.699 198.523 317.51 198.045 317.51C197.58 317.51 197.236 317.69 197.013 318.05C196.794 318.405 196.678 318.964 196.664 319.725V322.145C196.664 322.956 196.773 323.56 196.992 323.956C197.215 324.348 197.571 324.544 198.059 324.544C198.542 324.544 198.89 324.355 199.104 323.977C199.319 323.598 199.43 323.02 199.439 322.24V319.875ZM203.049 321.105L203.623 316.047H209.201V317.694H205.243L204.997 319.834C205.466 319.583 205.965 319.458 206.494 319.458C207.442 319.458 208.185 319.752 208.723 320.34C209.26 320.928 209.529 321.75 209.529 322.808C209.529 323.45 209.393 324.027 209.119 324.537C208.85 325.043 208.463 325.437 207.957 325.72C207.451 325.998 206.854 326.137 206.166 326.137C205.564 326.137 205.006 326.016 204.491 325.774C203.976 325.528 203.568 325.184 203.268 324.742C202.971 324.3 202.814 323.797 202.796 323.231H204.751C204.792 323.646 204.936 323.97 205.182 324.202C205.432 324.43 205.758 324.544 206.159 324.544C206.606 324.544 206.95 324.384 207.191 324.065C207.433 323.742 207.554 323.286 207.554 322.698C207.554 322.133 207.415 321.7 207.137 321.399C206.859 321.099 206.465 320.948 205.954 320.948C205.485 320.948 205.104 321.071 204.812 321.317L204.621 321.495L203.049 321.105ZM217.493 321.885C217.493 323.261 217.208 324.314 216.639 325.043C216.069 325.772 215.235 326.137 214.137 326.137C213.052 326.137 212.223 325.779 211.648 325.063C211.074 324.348 210.78 323.323 210.767 321.987V320.155C210.767 318.765 211.054 317.71 211.628 316.99C212.207 316.27 213.038 315.91 214.123 315.91C215.208 315.91 216.037 316.268 216.611 316.983C217.186 317.694 217.479 318.717 217.493 320.053V321.885ZM215.518 319.875C215.518 319.05 215.404 318.451 215.176 318.077C214.952 317.699 214.602 317.51 214.123 317.51C213.658 317.51 213.314 317.69 213.091 318.05C212.872 318.405 212.756 318.964 212.742 319.725V322.145C212.742 322.956 212.852 323.56 213.07 323.956C213.294 324.348 213.649 324.544 214.137 324.544C214.62 324.544 214.968 324.355 215.183 323.977C215.397 323.598 215.508 323.02 215.518 322.24V319.875ZM221.684 323.587L223.058 318.604H225.122L222.627 326H220.74L218.245 318.604H220.31L221.684 323.587ZM232.662 322.37C232.662 323.555 232.409 324.48 231.903 325.146C231.397 325.806 230.691 326.137 229.784 326.137C228.982 326.137 228.342 325.829 227.863 325.214L227.774 326H225.997V315.5H227.973V319.267C228.428 318.733 229.028 318.467 229.771 318.467C230.673 318.467 231.379 318.799 231.89 319.465C232.405 320.126 232.662 321.058 232.662 322.261V322.37ZM230.687 322.227C230.687 321.479 230.568 320.935 230.331 320.593C230.094 320.246 229.741 320.073 229.271 320.073C228.643 320.073 228.21 320.331 227.973 320.846V323.765C228.214 324.284 228.652 324.544 229.285 324.544C229.923 324.544 230.342 324.229 230.543 323.601C230.639 323.3 230.687 322.842 230.687 322.227ZM236.565 323.204L237.933 318.604H240.052L237.078 327.148L236.914 327.538C236.472 328.504 235.743 328.987 234.727 328.987C234.439 328.987 234.148 328.944 233.852 328.857V327.36L234.152 327.367C234.526 327.367 234.804 327.31 234.986 327.196C235.173 327.082 235.319 326.893 235.424 326.629L235.656 326.021L233.065 318.604H235.191L236.565 323.204ZM243.196 316.785V318.604H244.461V320.053H243.196V323.744C243.196 324.018 243.249 324.214 243.354 324.332C243.458 324.451 243.659 324.51 243.955 324.51C244.174 324.51 244.368 324.494 244.536 324.462V325.959C244.149 326.077 243.75 326.137 243.34 326.137C241.954 326.137 241.248 325.437 241.221 324.038V320.053H240.141V318.604H241.221V316.785H243.196ZM248.966 326.137C247.881 326.137 246.997 325.804 246.313 325.139C245.634 324.473 245.295 323.587 245.295 322.479V322.288C245.295 321.545 245.438 320.882 245.726 320.299C246.013 319.711 246.418 319.26 246.942 318.945C247.471 318.626 248.073 318.467 248.747 318.467C249.759 318.467 250.554 318.786 251.133 319.424C251.716 320.062 252.008 320.966 252.008 322.138V322.944H247.298C247.362 323.427 247.553 323.815 247.872 324.106C248.196 324.398 248.604 324.544 249.096 324.544C249.857 324.544 250.451 324.268 250.88 323.717L251.851 324.804C251.554 325.223 251.153 325.551 250.647 325.788C250.142 326.021 249.581 326.137 248.966 326.137ZM248.74 320.066C248.348 320.066 248.029 320.199 247.783 320.463C247.542 320.727 247.387 321.105 247.318 321.598H250.066V321.44C250.057 321.003 249.939 320.666 249.711 320.429C249.483 320.187 249.16 320.066 248.74 320.066ZM257.142 323.956C257.142 323.715 257.021 323.525 256.779 323.389C256.542 323.247 256.16 323.122 255.631 323.013C253.872 322.644 252.992 321.896 252.992 320.771C252.992 320.114 253.263 319.567 253.806 319.13C254.353 318.688 255.066 318.467 255.945 318.467C256.884 318.467 257.634 318.688 258.194 319.13C258.759 319.572 259.042 320.146 259.042 320.853H257.066C257.066 320.57 256.975 320.338 256.793 320.155C256.611 319.968 256.326 319.875 255.938 319.875C255.606 319.875 255.348 319.95 255.166 320.101C254.984 320.251 254.893 320.442 254.893 320.675C254.893 320.894 254.995 321.071 255.2 321.208C255.41 321.34 255.761 321.456 256.253 321.557C256.745 321.652 257.16 321.762 257.497 321.885C258.541 322.268 259.062 322.931 259.062 323.874C259.062 324.549 258.773 325.095 258.194 325.515C257.616 325.929 256.868 326.137 255.952 326.137C255.332 326.137 254.781 326.027 254.298 325.809C253.819 325.585 253.443 325.282 253.17 324.899C252.896 324.512 252.76 324.095 252.76 323.648H254.633C254.651 323.999 254.781 324.268 255.022 324.455C255.264 324.642 255.588 324.735 255.993 324.735C256.371 324.735 256.656 324.665 256.848 324.523C257.044 324.378 257.142 324.188 257.142 323.956Z" fill="#333333"/>
<path d="M26.877 347.933H22.9395V352H20.8887V342.047H27.3691V343.708H22.9395V346.278H26.877V347.933ZM34.5469 347.687H30.6094V350.353H35.2305V352H28.5586V342.047H35.2168V343.708H30.6094V346.08H34.5469V347.687ZM42.4219 347.687H38.4844V350.353H43.1055V352H36.4336V342.047H43.0918V343.708H38.4844V346.08H42.4219V347.687Z" fill="#333333"/>
<path d="M172.476 352H170.5V344.385L168.142 345.116V343.51L172.264 342.033H172.476V352ZM183.29 349.956C183.29 349.715 183.169 349.525 182.928 349.389C182.691 349.247 182.308 349.122 181.779 349.013C180.02 348.644 179.141 347.896 179.141 346.771C179.141 346.114 179.412 345.567 179.954 345.13C180.501 344.688 181.214 344.467 182.094 344.467C183.033 344.467 183.782 344.688 184.343 345.13C184.908 345.572 185.19 346.146 185.19 346.853H183.215C183.215 346.57 183.124 346.338 182.941 346.155C182.759 345.968 182.474 345.875 182.087 345.875C181.754 345.875 181.497 345.95 181.314 346.101C181.132 346.251 181.041 346.442 181.041 346.675C181.041 346.894 181.144 347.071 181.349 347.208C181.558 347.34 181.909 347.456 182.401 347.557C182.894 347.652 183.308 347.762 183.646 347.885C184.689 348.268 185.211 348.931 185.211 349.874C185.211 350.549 184.922 351.095 184.343 351.515C183.764 351.929 183.017 352.137 182.101 352.137C181.481 352.137 180.929 352.027 180.446 351.809C179.968 351.585 179.592 351.282 179.318 350.899C179.045 350.512 178.908 350.095 178.908 349.648H180.781C180.799 349.999 180.929 350.268 181.171 350.455C181.412 350.642 181.736 350.735 182.142 350.735C182.52 350.735 182.805 350.665 182.996 350.523C183.192 350.378 183.29 350.188 183.29 349.956ZM190.775 352C190.684 351.822 190.618 351.601 190.577 351.337C190.099 351.87 189.477 352.137 188.711 352.137C187.986 352.137 187.385 351.927 186.906 351.508C186.432 351.089 186.195 350.56 186.195 349.922C186.195 349.138 186.485 348.536 187.063 348.117C187.647 347.698 188.488 347.486 189.586 347.481H190.495V347.058C190.495 346.716 190.406 346.442 190.229 346.237C190.055 346.032 189.78 345.93 189.401 345.93C189.069 345.93 188.807 346.009 188.615 346.169C188.428 346.328 188.335 346.547 188.335 346.825H186.359C186.359 346.397 186.492 346 186.756 345.636C187.02 345.271 187.394 344.986 187.877 344.781C188.36 344.572 188.902 344.467 189.504 344.467C190.415 344.467 191.138 344.697 191.671 345.157C192.209 345.613 192.478 346.256 192.478 347.085V350.291C192.482 350.993 192.58 351.524 192.771 351.884V352H190.775ZM189.142 350.626C189.433 350.626 189.702 350.562 189.948 350.435C190.194 350.302 190.377 350.127 190.495 349.908V348.637H189.757C188.768 348.637 188.242 348.979 188.178 349.662L188.171 349.778C188.171 350.024 188.257 350.227 188.431 350.387C188.604 350.546 188.841 350.626 189.142 350.626ZM196.36 342.785V344.604H197.625V346.053H196.36V349.744C196.36 350.018 196.413 350.214 196.518 350.332C196.622 350.451 196.823 350.51 197.119 350.51C197.338 350.51 197.532 350.494 197.7 350.462V351.959C197.313 352.077 196.914 352.137 196.504 352.137C195.118 352.137 194.412 351.437 194.385 350.038V346.053H193.305V344.604H194.385V342.785H196.36ZM208.87 348.37C208.87 349.509 208.61 350.423 208.091 351.111C207.576 351.795 206.879 352.137 205.999 352.137C205.252 352.137 204.648 351.877 204.188 351.357V354.844H202.212V344.604H204.044L204.112 345.328C204.591 344.754 205.215 344.467 205.985 344.467C206.897 344.467 207.605 344.804 208.111 345.479C208.617 346.153 208.87 347.083 208.87 348.268V348.37ZM206.895 348.227C206.895 347.538 206.771 347.007 206.525 346.634C206.284 346.26 205.931 346.073 205.466 346.073C204.846 346.073 204.42 346.31 204.188 346.784V349.812C204.429 350.3 204.86 350.544 205.479 350.544C206.423 350.544 206.895 349.771 206.895 348.227ZM213.505 352.137C212.42 352.137 211.536 351.804 210.853 351.139C210.174 350.473 209.834 349.587 209.834 348.479V348.288C209.834 347.545 209.978 346.882 210.265 346.299C210.552 345.711 210.957 345.26 211.481 344.945C212.01 344.626 212.612 344.467 213.286 344.467C214.298 344.467 215.093 344.786 215.672 345.424C216.255 346.062 216.547 346.966 216.547 348.138V348.944H211.837C211.901 349.427 212.092 349.815 212.411 350.106C212.735 350.398 213.143 350.544 213.635 350.544C214.396 350.544 214.991 350.268 215.419 349.717L216.39 350.804C216.093 351.223 215.692 351.551 215.187 351.788C214.681 352.021 214.12 352.137 213.505 352.137ZM213.279 346.066C212.887 346.066 212.568 346.199 212.322 346.463C212.081 346.727 211.926 347.105 211.857 347.598H214.605V347.44C214.596 347.003 214.478 346.666 214.25 346.429C214.022 346.187 213.699 346.066 213.279 346.066ZM221.831 346.456C221.562 346.42 221.325 346.401 221.12 346.401C220.373 346.401 219.883 346.654 219.65 347.16V352H217.675V344.604H219.541L219.596 345.485C219.992 344.806 220.541 344.467 221.243 344.467C221.462 344.467 221.667 344.496 221.858 344.556L221.831 346.456ZM229.043 349.587L230.417 344.604H232.481L229.986 352H228.1L225.604 344.604H227.669L229.043 349.587ZM240.021 348.37C240.021 349.555 239.769 350.48 239.263 351.146C238.757 351.806 238.05 352.137 237.144 352.137C236.341 352.137 235.701 351.829 235.223 351.214L235.134 352H233.356V341.5H235.332V345.267C235.788 344.733 236.387 344.467 237.13 344.467C238.032 344.467 238.739 344.799 239.249 345.465C239.764 346.126 240.021 347.058 240.021 348.261V348.37ZM238.046 348.227C238.046 347.479 237.927 346.935 237.69 346.593C237.453 346.246 237.1 346.073 236.631 346.073C236.002 346.073 235.569 346.331 235.332 346.846V349.765C235.574 350.284 236.011 350.544 236.645 350.544C237.283 350.544 237.702 350.229 237.902 349.601C237.998 349.3 238.046 348.842 238.046 348.227ZM243.925 349.204L245.292 344.604H247.411L244.438 353.148L244.273 353.538C243.831 354.504 243.102 354.987 242.086 354.987C241.799 354.987 241.507 354.944 241.211 354.857V353.36L241.512 353.367C241.885 353.367 242.163 353.31 242.346 353.196C242.533 353.082 242.678 352.893 242.783 352.629L243.016 352.021L240.425 344.604H242.551L243.925 349.204ZM250.556 342.785V344.604H251.82V346.053H250.556V349.744C250.556 350.018 250.608 350.214 250.713 350.332C250.818 350.451 251.018 350.51 251.314 350.51C251.533 350.51 251.727 350.494 251.896 350.462V351.959C251.508 352.077 251.109 352.137 250.699 352.137C249.314 352.137 248.607 351.437 248.58 350.038V346.053H247.5V344.604H248.58V342.785H250.556ZM256.325 352.137C255.241 352.137 254.356 351.804 253.673 351.139C252.994 350.473 252.654 349.587 252.654 348.479V348.288C252.654 347.545 252.798 346.882 253.085 346.299C253.372 345.711 253.778 345.26 254.302 344.945C254.83 344.626 255.432 344.467 256.106 344.467C257.118 344.467 257.913 344.786 258.492 345.424C259.076 346.062 259.367 346.966 259.367 348.138V348.944H254.657C254.721 349.427 254.912 349.815 255.231 350.106C255.555 350.398 255.963 350.544 256.455 350.544C257.216 350.544 257.811 350.268 258.239 349.717L259.21 350.804C258.914 351.223 258.513 351.551 258.007 351.788C257.501 352.021 256.94 352.137 256.325 352.137ZM256.1 346.066C255.708 346.066 255.389 346.199 255.143 346.463C254.901 346.727 254.746 347.105 254.678 347.598H257.426V347.44C257.417 347.003 257.298 346.666 257.07 346.429C256.842 346.187 256.519 346.066 256.1 346.066Z" fill="#333333"/>
<path d="M28.3809 369.708H25.332V378H23.2812V369.708H20.2734V368.047H28.3809V369.708ZM37.541 373.249C37.541 374.229 37.3678 375.088 37.0215 375.826C36.6751 376.564 36.1784 377.134 35.5312 377.535C34.8887 377.936 34.1504 378.137 33.3164 378.137C32.4915 378.137 31.7555 377.938 31.1084 377.542C30.4613 377.146 29.96 376.58 29.6045 375.847C29.249 375.108 29.069 374.261 29.0645 373.304V372.812C29.0645 371.832 29.2399 370.97 29.5908 370.228C29.9463 369.48 30.4453 368.908 31.0879 368.512C31.735 368.111 32.4733 367.91 33.3027 367.91C34.1322 367.91 34.8682 368.111 35.5107 368.512C36.1579 368.908 36.6569 369.48 37.0078 370.228C37.3633 370.97 37.541 371.829 37.541 372.805V373.249ZM35.4629 372.798C35.4629 371.754 35.276 370.961 34.9023 370.419C34.5286 369.877 33.9954 369.605 33.3027 369.605C32.6146 369.605 32.0837 369.874 31.71 370.412C31.3363 370.945 31.1471 371.729 31.1426 372.764V373.249C31.1426 374.265 31.3294 375.054 31.7031 375.614C32.0768 376.175 32.6146 376.455 33.3164 376.455C34.0046 376.455 34.5332 376.186 34.9023 375.648C35.2715 375.106 35.4583 374.318 35.4629 373.283V372.798ZM45.9355 369.708H42.8867V378H40.8359V369.708H37.8281V368.047H45.9355V369.708ZM51.9102 375.949H48.3145L47.6309 378H45.4502L49.1553 368.047H51.0557L54.7812 378H52.6006L51.9102 375.949ZM48.8682 374.288H51.3564L50.1055 370.562L48.8682 374.288ZM57.7617 376.353H62.1162V378H55.7109V368.047H57.7617V376.353ZM72.7734 373.933H68.8359V378H66.7852V368.047H73.2656V369.708H68.8359V372.278H72.7734V373.933ZM80.4434 373.687H76.5059V376.353H81.127V378H74.4551V368.047H81.1133V369.708H76.5059V372.08H80.4434V373.687ZM88.3184 373.687H84.3809V376.353H89.002V378H82.3301V368.047H88.9883V369.708H84.3809V372.08H88.3184V373.687Z" fill="#333333"/>
<path d="M202.476 378H200.5V370.385L198.142 371.116V369.51L202.264 368.033H202.476V378ZM212.415 373.885C212.415 375.261 212.13 376.314 211.561 377.043C210.991 377.772 210.157 378.137 209.059 378.137C207.974 378.137 207.145 377.779 206.57 377.063C205.996 376.348 205.702 375.323 205.688 373.987V372.155C205.688 370.765 205.976 369.71 206.55 368.99C207.129 368.27 207.96 367.91 209.045 367.91C210.13 367.91 210.959 368.268 211.533 368.983C212.107 369.694 212.401 370.717 212.415 372.053V373.885ZM210.439 371.875C210.439 371.05 210.326 370.451 210.098 370.077C209.874 369.699 209.523 369.51 209.045 369.51C208.58 369.51 208.236 369.69 208.013 370.05C207.794 370.405 207.678 370.964 207.664 371.725V374.145C207.664 374.956 207.773 375.56 207.992 375.956C208.215 376.348 208.571 376.544 209.059 376.544C209.542 376.544 209.89 376.355 210.104 375.977C210.319 375.598 210.43 375.02 210.439 374.24V371.875ZM214.049 373.105L214.623 368.047H220.201V369.694H216.243L215.997 371.834C216.466 371.583 216.965 371.458 217.494 371.458C218.442 371.458 219.185 371.752 219.723 372.34C220.26 372.928 220.529 373.75 220.529 374.808C220.529 375.45 220.393 376.027 220.119 376.537C219.85 377.043 219.463 377.437 218.957 377.72C218.451 377.998 217.854 378.137 217.166 378.137C216.564 378.137 216.006 378.016 215.491 377.774C214.976 377.528 214.568 377.184 214.268 376.742C213.971 376.3 213.814 375.797 213.796 375.231H215.751C215.792 375.646 215.936 375.97 216.182 376.202C216.432 376.43 216.758 376.544 217.159 376.544C217.606 376.544 217.95 376.384 218.191 376.065C218.433 375.742 218.554 375.286 218.554 374.698C218.554 374.133 218.415 373.7 218.137 373.399C217.859 373.099 217.465 372.948 216.954 372.948C216.485 372.948 216.104 373.071 215.812 373.317L215.621 373.495L214.049 373.105ZM228.493 373.885C228.493 375.261 228.208 376.314 227.639 377.043C227.069 377.772 226.235 378.137 225.137 378.137C224.052 378.137 223.223 377.779 222.648 377.063C222.074 376.348 221.78 375.323 221.767 373.987V372.155C221.767 370.765 222.054 369.71 222.628 368.99C223.207 368.27 224.038 367.91 225.123 367.91C226.208 367.91 227.037 368.268 227.611 368.983C228.186 369.694 228.479 370.717 228.493 372.053V373.885ZM226.518 371.875C226.518 371.05 226.404 370.451 226.176 370.077C225.952 369.699 225.602 369.51 225.123 369.51C224.658 369.51 224.314 369.69 224.091 370.05C223.872 370.405 223.756 370.964 223.742 371.725V374.145C223.742 374.956 223.852 375.56 224.07 375.956C224.294 376.348 224.649 376.544 225.137 376.544C225.62 376.544 225.968 376.355 226.183 375.977C226.397 375.598 226.508 375.02 226.518 374.24V371.875ZM237.407 375.956C237.407 375.715 237.286 375.525 237.045 375.389C236.808 375.247 236.425 375.122 235.896 375.013C234.137 374.644 233.258 373.896 233.258 372.771C233.258 372.114 233.529 371.567 234.071 371.13C234.618 370.688 235.331 370.467 236.211 370.467C237.15 370.467 237.899 370.688 238.46 371.13C239.025 371.572 239.308 372.146 239.308 372.853H237.332C237.332 372.57 237.241 372.338 237.059 372.155C236.876 371.968 236.591 371.875 236.204 371.875C235.871 371.875 235.614 371.95 235.432 372.101C235.249 372.251 235.158 372.442 235.158 372.675C235.158 372.894 235.261 373.071 235.466 373.208C235.675 373.34 236.026 373.456 236.519 373.557C237.011 373.652 237.425 373.762 237.763 373.885C238.806 374.268 239.328 374.931 239.328 375.874C239.328 376.549 239.039 377.095 238.46 377.515C237.881 377.929 237.134 378.137 236.218 378.137C235.598 378.137 235.047 378.027 234.563 377.809C234.085 377.585 233.709 377.282 233.436 376.899C233.162 376.512 233.025 376.095 233.025 375.648H234.898C234.917 375.999 235.047 376.268 235.288 376.455C235.53 376.642 235.853 376.735 236.259 376.735C236.637 376.735 236.922 376.665 237.113 376.523C237.309 376.378 237.407 376.188 237.407 375.956ZM244.893 378C244.801 377.822 244.735 377.601 244.694 377.337C244.216 377.87 243.594 378.137 242.828 378.137C242.104 378.137 241.502 377.927 241.023 377.508C240.549 377.089 240.312 376.56 240.312 375.922C240.312 375.138 240.602 374.536 241.181 374.117C241.764 373.698 242.605 373.486 243.703 373.481H244.612V373.058C244.612 372.716 244.523 372.442 244.346 372.237C244.173 372.032 243.897 371.93 243.519 371.93C243.186 371.93 242.924 372.009 242.732 372.169C242.546 372.328 242.452 372.547 242.452 372.825H240.477C240.477 372.397 240.609 372 240.873 371.636C241.137 371.271 241.511 370.986 241.994 370.781C242.477 370.572 243.02 370.467 243.621 370.467C244.533 370.467 245.255 370.697 245.788 371.157C246.326 371.613 246.595 372.256 246.595 373.085V376.291C246.599 376.993 246.697 377.524 246.889 377.884V378H244.893ZM243.259 376.626C243.55 376.626 243.819 376.562 244.065 376.435C244.312 376.302 244.494 376.127 244.612 375.908V374.637H243.874C242.885 374.637 242.359 374.979 242.295 375.662L242.288 375.778C242.288 376.024 242.375 376.227 242.548 376.387C242.721 376.546 242.958 376.626 243.259 376.626ZM250.478 368.785V370.604H251.742V372.053H250.478V375.744C250.478 376.018 250.53 376.214 250.635 376.332C250.74 376.451 250.94 376.51 251.236 376.51C251.455 376.51 251.649 376.494 251.817 376.462V377.959C251.43 378.077 251.031 378.137 250.621 378.137C249.236 378.137 248.529 377.437 248.502 376.038V372.053H247.422V370.604H248.502V368.785H250.478ZM256.849 375.956C256.849 375.715 256.728 375.525 256.486 375.389C256.249 375.247 255.867 375.122 255.338 375.013C253.579 374.644 252.699 373.896 252.699 372.771C252.699 372.114 252.97 371.567 253.513 371.13C254.06 370.688 254.773 370.467 255.652 370.467C256.591 370.467 257.341 370.688 257.901 371.13C258.466 371.572 258.749 372.146 258.749 372.853H256.773C256.773 372.57 256.682 372.338 256.5 372.155C256.318 371.968 256.033 371.875 255.646 371.875C255.313 371.875 255.055 371.95 254.873 372.101C254.691 372.251 254.6 372.442 254.6 372.675C254.6 372.894 254.702 373.071 254.907 373.208C255.117 373.34 255.468 373.456 255.96 373.557C256.452 373.652 256.867 373.762 257.204 373.885C258.248 374.268 258.77 374.931 258.77 375.874C258.77 376.549 258.48 377.095 257.901 377.515C257.323 377.929 256.575 378.137 255.659 378.137C255.039 378.137 254.488 378.027 254.005 377.809C253.526 377.585 253.15 377.282 252.877 376.899C252.604 376.512 252.467 376.095 252.467 375.648H254.34C254.358 375.999 254.488 376.268 254.729 376.455C254.971 376.642 255.295 376.735 255.7 376.735C256.078 376.735 256.363 376.665 256.555 376.523C256.751 376.378 256.849 376.188 256.849 375.956Z" fill="#333333"/>
<path d="M3 2H277V-2H3V2ZM278 3V398H282V3H278ZM277 399H3V403H277V399ZM2 398V2.99999H-2V398H2ZM3 399C2.44772 399 2 398.552 2 398H-2C-2 400.761 0.23858 403 3 403V399ZM278 398C278 398.552 277.552 399 277 399V403C279.761 403 282 400.761 282 398H278ZM277 2C277.552 2 278 2.44772 278 3H282C282 0.238574 279.761 -2 277 -2V2ZM3 -2C0.238583 -2 -2 0.238561 -2 2.99999H2C2 2.44771 2.44771 2 3 2V-2Z" fill="black"/>
</svg>
